<?xml version="1.0" encoding="UTF-8"?><svg id="Layer_1" xmlns="http://www.w3.org/2000/svg" viewBox="0 0 54.2 47.57"><defs><style>.cls-1{fill:#fcbf49;}.cls-2{fill:#ff9408;}.cls-3{fill:#d62828;}</style></defs><path class="cls-3" d="M14.58,3.26s6.68,7.42,9.02,5.93S28.3,.67,28.3,.67c0,0,1.24,9.77,5.32,9.02,4.08-.74,7.91-5.19,7.91-5.19,0,0-5.32,10.01,.62,10.14,5.93,.12,8.65-1.48,8.65-1.48,0,0-9.89,6.31-5.69,8.65s8.65,3.09,8.65,3.09c0,0-12.24,1.36-9.89,5.32,2.35,3.96,5.81,6.06,5.81,6.06,0,0-10.14-4.2-11.5-.37,0,0,0,5.07,1.48,8.16,0,0-6.43-7.05-9.27-5.69-2.84,1.36-4.2,8.53-4.2,8.53,0,0-.87-8.9-5.19-9.15-4.33-.25-8.28,5.44-8.28,5.44,0,0,4.39-8.96,1.17-9.83s-10.38,1.11-10.38,1.11c0,0,8.28-5.19,6.8-7.79S.42,22.61,.42,22.61c0,0,9.64-1.24,10.26-3.46S4.5,10.99,4.5,10.99c0,0,10.51,4.45,11.37,1.24s-1.3-8.96-1.3-8.96Z"/><path class="cls-2" d="M17.2,7.55s5.28,5.87,7.14,4.69,3.72-6.75,3.72-6.75c0,0,.98,7.73,4.2,7.14s6.26-4.11,6.26-4.11c0,0-4.2,7.92,.49,8.02,4.69,.1,6.85-1.17,6.85-1.17,0,0-7.82,4.99-4.5,6.85,3.32,1.86,6.85,2.44,6.85,2.44,0,0-9.68,1.08-7.82,4.2,1.86,3.13,4.6,4.79,4.6,4.79,0,0-8.02-3.32-9.09-.29,0,0,0,4.01,1.17,6.45,0,0-5.08-5.57-7.33-4.5s-3.32,6.75-3.32,6.75c0,0-.68-7.04-4.11-7.24-3.42-.2-6.55,4.3-6.55,4.3,0,0,3.47-7.09,.93-7.77s-8.21,.88-8.21,.88c0,0,6.55-4.11,5.38-6.16s-7.82-3.23-7.82-3.23c0,0,7.63-.98,8.12-2.74,.49-1.76-4.89-6.45-4.89-6.45,0,0,8.31,3.52,9,.98,.68-2.54-1.03-7.09-1.03-7.09Z"/><path class="cls-1" d="M20.61,13.15s3.46,3.84,4.68,3.07,2.43-4.42,2.43-4.42c0,0,.64,5.06,2.75,4.68,2.11-.38,4.1-2.69,4.1-2.69,0,0-2.75,5.19,.32,5.25,3.07,.06,4.48-.77,4.48-.77,0,0-5.12,3.27-2.95,4.48,2.18,1.22,4.48,1.6,4.48,1.6,0,0-6.34,.7-5.12,2.75s3.01,3.14,3.01,3.14c0,0-5.25-2.18-5.96-.19,0,0,0,2.63,.77,4.23,0,0-3.33-3.65-4.8-2.95-1.47,.7-2.18,4.42-2.18,4.42,0,0-.45-4.61-2.69-4.74s-4.29,2.82-4.29,2.82c0,0,2.27-4.64,.61-5.09s-5.38,.58-5.38,.58c0,0,4.29-2.69,3.52-4.04s-5.12-2.11-5.12-2.11c0,0,5-.64,5.32-1.79,.32-1.15-3.2-4.23-3.2-4.23,0,0,5.45,2.31,5.89,.64s-.67-4.64-.67-4.64Z"/></svg>