<?xml version="1.0" encoding="UTF-8"?><svg id="Layer_1" xmlns="http://www.w3.org/2000/svg" viewBox="0 0 1151.29 624.23"><defs><style>.cls-1{fill:#f2f2f2;}.cls-2{fill:#f9d84e;}.cls-3{fill:#003049;}.cls-4{fill:#e8ab68;}.cls-5{fill:#e56643;}.cls-6{fill:#e3b991;}.cls-7{fill:#ec8f52;}.cls-8{fill:#73a55b;}.cls-9{fill:#7f7f7f;}.cls-10{fill:#b7b7b7;}.cls-11{fill:#b3babc;}.cls-12{fill:#914a4a;}.cls-13{fill:#a6a7a9;}.cls-14{fill:#c9c9c9;}.cls-15{fill:#d1d1d1;}.cls-16,.cls-17{fill:#e0e0e0;}.cls-18{fill:#adadad;}.cls-19{fill:#d62828;}.cls-20{fill:#26eaad;}.cls-21{fill:#583016;}.cls-22{fill:#7bb3c6;}.cls-23{stroke:#b7b7b7;stroke-width:2.25px;}.cls-23,.cls-24,.cls-17,.cls-25{stroke-miterlimit:10;}.cls-23,.cls-24,.cls-25{fill:none;}.cls-26{opacity:.2;}.cls-27{opacity:.25;}.cls-28{opacity:.44;}.cls-29{opacity:.51;}.cls-24{stroke-width:14.25px;}.cls-24,.cls-17{stroke:#88898e;}.cls-17{stroke-width:.19px;}.cls-25{stroke:#7bb3c6;stroke-linecap:round;stroke-width:3.75px;}</style></defs><g><path class="cls-4" d="M892.38,624.23H187.93c1.35-1.61,2.71-3.2,4.08-4.79,18.24-21.08,38.25-40.45,59.88-57.87,9.86-7.99,20.01-15.55,30.53-22.65,73.7-50.31,162.34-79.62,257.74-79.62,62.09,0,121.3,12.41,175.44,34.92,37.96,15.77,73.34,36.55,105.48,61.52,26.12,20.18,50,43.18,71.3,68.49Z"/><g><path class="cls-7" d="M892.38,624.23H202.03c-3.46-1.6-6.8-3.2-10.02-4.79,18.24-21.08,38.25-40.45,59.88-57.87,49.14,29.91,153.74,69.61,339.76,39.78,98.87-15.85,173.82-31.78,229.43-45.61,26.12,20.18,50,43.18,71.3,68.49Z"/><path class="cls-5" d="M715.6,494.22c-50.76-.07-108.13,2.99-172.57,10.54-104.45,12.26-189.49,24.45-257.9,35.81-.88-.52-1.84-1.05-2.72-1.64,73.71-50.31,162.34-79.62,257.75-79.62,62.08,0,121.3,12.41,175.44,34.91Z"/></g></g><g><path class="cls-22" d="M72.23,78.89c0,3.08-.4,6.06-1.14,8.91-1.6,6.1-4.79,11.56-9.12,15.89-3.08,3.09-6.73,5.61-10.78,7.38-.71,.31-1.42,.59-2.15,.86-2,.72-4.1,1.27-6.25,1.62-1.85,.3-3.74,.46-5.67,.46-19.39,0-35.11-15.72-35.11-35.11s15.19-34.57,34.12-35.1c.33,0,.66-.01,1-.01,19.39,0,35.11,15.72,35.11,35.11Z"/><path class="cls-8" d="M71.09,87.8c0-.1,0-.21-.08-.29-.12-.12-.32-.08-.42-.07-.28,.02-.74-.23-1.88-2.58-.55-1.14-.68-1.58-.7-2.09,0-.28,.02-.37,.07-.91,.04-.41,.1-1.33,.07-2.23-.05-1.31-.09-2.22-.56-3.21-.21-.43-.41-.7-.42-1.19-.01-.71,.39-1.25,.21-1.4-.09-.07-.21,.02-.42,.07-.71,.17-1.68-.31-2.02-1.05-.06-.13-.22-.46-.14-.84,.08-.42,.37-.51,.42-.91,.05-.42-.22-.77-.28-.84-.3-.37-.58-.26-1.33-.63-.3-.15-1.07-.53-1.05-.98,0-.14,.08-.16,.14-.35,.11-.37-.03-.72-.14-.98-.5-1.16-.74-1.75-.98-2.09-.38-.56-.57-.7-.91-1.33-.15-.28-.23-.15-.35-.43-.46-1.12-.69-2.01-.56-2.5,.13-.47,.42-.59,.35-.91-.02-.07-.09-.3-.77-.63-1.18-.56-1.73-.23-2.3-.77-.09-.08-.27-.27-.56-.35-.22-.06-.55-.08-.63,.07-.07,.13,.12,.25,.21,.56,.17,.54-.22,.84-.07,1.26,.1,.27,.35,.39,.7,.56,.29,.14,.57,.21,1.88,.49,.18,.04,.36,.08,.42,.21,.06,.14-.02,.32-.35,.77-.5,.68-.75,1.02-1.05,1.12-.53,.18-1.01-.05-1.05-.07-.63-.31-.83-1.06-.91-1.33-.09-.35-.14-.82-.35-1.4-.03-.07-.08-.22-.21-.35-.19-.19-.42-.24-.63-.28-.49-.09-.84-.07-1.12-.07-.72,0-1.25-.02-1.54-.35-.32-.37-.24-1.02-.07-1.4,.13-.29,.43-.69,.84-.98,.23-.16,.45-.26,.49-.49,.03-.15-.03-.32-.14-.42-.21-.19-.57-.1-.77-.07-.63,.09-1.18-.3-2.02-.91-.52-.37-1.25-.89-1.82-1.82-.26-.41-.46-.88-.84-.91-.18-.01-.33,.08-.63,.28-.47,.31-.47,.47-.84,.7-.19,.12-.62,.39-1.05,.28-.28-.07-.3-.24-.63-.49-.52-.39-1.19-.49-1.68-.42-.43,.06-.5,.24-1.05,.49-.31,.14-1.11,.51-1.95,.42-1.07-.12-2.23-.96-2.58-1.61-.03-.06-.11-.22-.28-.28-.27-.1-.55,.13-.98,.42-.8,.54-1.2,.81-1.61,.84-.53,.04-.85-.23-1.12,0-.17,.15-.26,.44-.28,.49-.07,.22-.02,.26-.07,.42-.1,.31-.42,.54-.7,.63-.38,.12-.49-.08-.84,.07-.05,.02-.38,.16-.49,.49-.09,.27,.02,.52,.07,.63,.16,.38,.41,.4,.42,.63,0,.27-.34,.58-.63,.56-.17-.02-.2-.14-.42-.28-.32-.21-.78-.27-1.12-.14-.09,.03-.24,.11-.7,.77-.38,.54-.42,.7-.63,.98-.28,.38-.56,.59-1.12,.98-.91,.64-2.01,1.23-2.09,1.12-.05-.07,.24-.41,.49-.63,.18-.16,.28-.19,.28-.28,0-.18-.34-.24-.77-.56-.15-.11-.5-.38-.7-.84-.07-.17-.27-.61-.07-.91,.05-.08,.14-.15,.56-.28,.57-.17,.78-.15,1.26-.28,.5-.14,.76-.21,.84-.42,.08-.19-.04-.46-.28-.98-.17-.37-.29-.55-.21-.7,.06-.1,.14-.08,.35-.21,.08-.05,.14-.1,.49-.49,.25-.28,.38-.42,.42-.49,.16-.26,.12-.34,.28-.63,.19-.35,.31-.34,.42-.56,.23-.48-.09-1.09-.14-1.19-.27-.51-.57-.49-1.26-1.05-.78-.64-1.16-1.31-1.4-1.75-.3-.54-.53-.98-.35-1.33,.14-.28,.47-.37,.91-.49,.45-.12,.76-.12,1.4-.14,.51-.02,1.06-.05,1.33-.07,.73-.06,1.1-.23,2.3-.63,1.35-.45,.9-.25,2.44-.77,1.47-.49,2.51-.88,3.02-1.07,.33,0,.66-.01,1-.01,19.39,0,35.11,15.72,35.11,35.11,0,3.08-.4,6.06-1.14,8.91Z"/><path class="cls-8" d="M61.97,103.69c-3.08,3.09-6.73,5.61-10.78,7.38-.66,.28-1.38,.57-2.15,.86-2,.72-4.1,1.27-6.25,1.62-.84-.12-1.55-.64-2.92-1.67-.41-.31-.62-.47-.7-.56-.89-1.02-.9-2.75-.21-3.7,.23-.32,.47-.64,.84-.7,.23-.04,.47,.03,.7-.14,.07-.06,.14-.13,.21-.28,.15-.32,.39-1.17,0-1.61-.26-.29-.6-.17-1.54-.28-.34-.04-1.05-.12-1.68-.35-1.44-.53-2.31-1.8-2.51-2.09-.37-.53-.3-.63-.63-.98-.36-.38-.74-.59-1.95-1.05-1.49-.56-2.69-.91-2.93-.98-1.03-.3-.99-.25-1.47-.42-.85-.3-1.36-.62-2.37-1.26-.48-.3-.93-.61-.91-.98,0-.1,.05-.18,.07-.21,.35-.61,.62-2.2,.63-3.49,0-.55,0-1.14-.21-1.88-.08-.28-.21-.71-.49-1.19-.69-1.16-1.95-1.93-2.16-1.75-.06,.05-.03,.18,0,.28,.28,1.04,.62,1.93,.77,2.37,.2,.59,.33,1.25,.14,1.95-.06,.24-.11,.27-.14,.28-.47,.18-2.42-2.33-2.58-5.38-.01-.2,0-.06,0-.91-.02-3.06-.22-3.36-.07-4.68,.12-1.1,.21-1.85,.7-2.65,.21-.35,.45-.62,.77-1.26,.13-.26,.39-.8,.56-1.47,.17-.68,.06-.81,.14-1.88,.1-1.31,.18-2.52,.7-3.21,.09-.11,.3-.37,.42-.77,.12-.39,.02-.46,.14-.7,.19-.38,.5-.3,.84-.77,.11-.15,.24-.34,.21-.56-.04-.26-.29-.41-.42-.49-1.06-.63-2.9-1.28-3.42-1.47-1.11-.4-.54-.25-1.05-.42-.56-.19-.83-.23-.98-.49-.12-.21-.11-.49,0-.7,.18-.35,.59-.4,.7-.42,.25-.03,.45,.03,.77,.14,.5,.17,.64,.34,.91,.28,.12-.03,.19-.09,.35-.21,.14-.11,.45-.35,.63-.77,.2-.46,.05-.68,.28-.91,.15-.15,.35-.19,.49-.21,.79-.12,1.27,.56,1.61,.35,.21-.13,.23-.51,.21-.7-.03-.31-.2-.42-.14-.63,.07-.23,.35-.33,.42-.35,.14-.05,.39-.09,.98,.14,.4,.16,.97,.39,1.47,.98,.38,.45,.52,.88,.56,.98,.14,.42,.12,.72,.14,.91,.09,1.17,1.45,1.66,3.77,3.42,.11,.08,.38,.29,.49,.21,.16-.11-.06-.73-.21-1.05-.13-.28-.2-.34-.35-.7-.18-.45-.17-.6-.14-.7,.08-.26,.31-.4,.35-.42,.43-.24,.97,.03,1.33,.21,.29,.14,.5,.25,.63,.49,.1,.19,.09,.41,.07,.84-.05,.94-.06,.97-.07,1.19-.03,.97,.14,1.23,.21,1.33,.03,.03,.3,.41,.56,.35,.21-.05,.3-.37,.42-.77,.16-.56,.09-.72,.28-.98,.03-.04,.31-.4,.63-.35,.28,.05,.42,.4,.49,.56,.16,.39,.02,.53,.14,1.05,.05,.23,.17,.76,.49,.84,.03,0,.1,.02,.35-.07,.49-.18,.54-.34,.84-.42,.29-.07,.69-.03,.84,.21,.12,.19,.02,.44,0,.49-.19,.49-.79,.64-1.26,.84-.38,.16-.98,.74-2.16,1.88-1.09,1.06-1.33,1.43-1.33,1.88,0,.1,.01,.41,.21,.7,.35,.52,.86,.31,1.75,.91,.33,.22,.37,.33,.77,.56,.43,.25,.55,.23,.7,.42,.24,.3,.03,.47,.28,.98,.16,.33,.25,.26,.49,.7,.09,.16,.14,.3,.28,.35,.14,.05,.31,0,.42-.07,.29-.21,.14-.72,.14-2.09,0-.43,.02-.81,.28-1.05,.15-.13,.22-.09,.35-.21,.23-.23,.18-.67,.07-1.54-.13-1-.15-1.14-.07-1.19,.19-.11,.6,.55,1.68,1.19,.3,.18,.45,.27,.7,.35,.69,.23,.98,0,1.68,.14,.64,.12,1.08,.43,1.26,.56,.58,.42,.48,.66,1.05,1.26,.81,.84,1.29,.64,2.23,1.61,.25,.26,.27,.33,.7,.77,.54,.56,.69,.64,.7,.84,.01,.42-.64,.91-1.26,.91-.53,0-.92-.37-1.05-.49-.16-.15-.36-.47-.77-1.12-.16-.26-.27-.43-.49-.56-.07-.04-.32-.17-.63-.14-.45,.04-.45,.37-1.05,.63-.41,.18-.59,.1-.91,.35-.1,.08-.25,.2-.35,.42-.11,.26-.14,.63,.07,.91,.03,.03,.23,.3,.49,.28,.15-.01,.2-.11,.35-.21,.47-.3,1.23-.13,1.33,.14,.03,.07,0,.14,.07,.21,.08,.08,.21,.07,.28,.07,.3-.02,.86,0,.91,.14,.03,.09-.17,.25-.21,.28-.54,.41-.96,.97-1.54,1.33-1.94,1.19-3.54,2.59-4.05,3.56-.11,.22-.3,.58-.21,.98,.08,.35,.31,.43,.35,.77,.05,.38-.19,.69-.35,.91-.35,.48-.58,.38-1.19,.98-.38,.37-.35,.47-.63,.63-.37,.21-.69,.19-.77,.42-.03,.08,0,.2,.07,.42,.08,.27,.16,.44,.21,.56,.17,.41,.23,.75,.28,1.05,.06,.38,.09,.57,0,.7-.19,.27-.66,.22-.77,.21-.29-.03-.49-.15-.7-.28-.18-.11-.59-.37-.84-.84-.18-.34-.09-.45-.21-.84-.21-.67-.69-1.07-1.26-1.54-.43-.36-.69-.57-1.12-.7-.64-.19-1.19-.05-1.4,0-.33,.09-.61,.27-1.19,.63-1.13,.71-1.32,1.05-1.4,1.19-.13,.26-.06,.26-.21,.77-.33,1.08-.72,1.18-.84,1.95-.04,.26-.13,.85,.21,1.26,.23,.28,.42,.17,1.05,.49,.43,.22,.92,.47,1.33,.98,.19,.24,.33,.5,.63,.56,.05,0,.27,.05,.42-.07,.25-.2,0-.56,.21-1.12,.04-.1,.17-.42,.49-.63,.11-.07,.35-.22,.56-.14,.36,.14,.35,.86,.35,.91-.02,.57-.35,1.03-.42,1.12-.22,.29-.41,.38-.42,.63-.01,.25,.17,.45,.21,.49,.25,.27,.56,.26,1.61,.35,.87,.07,1.14,.11,1.47,.28,.27,.14,.44,.22,.56,.42,.34,.55,.07,1.59-.49,2.09-.09,.08-.19,.15-.21,.28-.05,.32,.45,.68,.84,.84,.39,.16,.8,.11,1.61,0,1.06-.14,1.6-.22,2.02-.63,.2-.19,.2-.28,.42-.42,.37-.24,.94-.36,1.4-.14,.21,.1,.19,.18,.42,.28,.39,.18,.78,.11,.98,.07,.79-.15,1.18-.23,2.93-.63,1.01-.23,1.51-.35,1.88-.28,1.58,.28,1.86,1.96,3.21,1.95,.33,0,.23-.1,1.47-.35,.87-.18,1.3-.26,1.61-.21,.96,.17,.92,.95,1.88,1.26,.6,.19,1.19,.03,2.37-.28,1.18-.31,1.65-.62,1.71-.52,0,0,0,.01,0,.02Z"/><path class="cls-8" d="M50.73,66.6c-.1-.7,.42-1.5,1.05-1.54,.45-.02,.78,.35,.84,.42,.27,.31,.4,.77,.28,1.19-.17,.58-.81,1.07-1.4,.91-.46-.13-.71-.61-.77-.98Z"/><path class="cls-8" d="M59.38,68.76c-.67-.15-1.98-.55-2.65-1.68-.23-.38-.52-1.07-.28-1.33,.07-.07,.15-.08,1.07-.17,.24-.02,.37-.03,.46-.04,.57-.05,.95-.08,1.4-.07,.44,0,.56,.05,.63,.14,.1,.13,0,.24,.03,.52,.05,.48,.37,.66,.28,.84-.09,.17-.46,.15-.56,.14-1.14-.09-2.08-1.2-2.09-1.19-.01,.01,1.23,.86,1.61,2.23,.07,.24,.09,.44,.1,.59Z"/><path class="cls-8" d="M38.75,60.7c.22,0,.55,.21,.77,.42,.28,.28,.36,.56,.56,.56,.17,0,.3-.21,.35-.28,.5-.73,2.86-1.03,4.54,0,.25,.15,.83,.51,1.26,1.19,.29,.45,.2,.56,.49,.91,.43,.51,.76,.45,1.33,1.05,.28,.29,.45,.48,.49,.77,.04,.32-.14,.48-.56,1.19-.66,1.1-.69,1.48-.7,1.61-.03,.48,.15,.86,.21,.98,.36,.74,1.02,.93,2.86,2.16,.41,.28,.75,.51,.7,.7-.06,.22-.65,.26-.91,.28-.65,.04-.74-.14-1.26-.07-.52,.07-.57,.27-1.05,.28-.06,0-.51,0-.91-.21-.54-.29-.67-.81-1.05-1.68-.64-1.47-.79-1.17-.98-1.88-.25-.92,.06-1.17-.14-3.07-.06-.58-.14-1.05-.49-1.26-.27-.16-.63-.11-.91-.07-.48,.07-.5,.21-.91,.28-.71,.11-.96-.28-1.33-.07-.3,.17-.17,.45-.56,.91-.04,.04-.59,.69-.98,.56-.44-.15-.36-1.23-.63-1.26-.23-.02-.34,.77-.77,.84-.33,.05-.65-.35-.7-.42-.98-1.26,.38-4.42,1.26-4.4Z"/></g><g><path class="cls-15" d="M82.47,15.2c0,.18,0,.35-.01,.53-.02,.49-.07,.97-.14,1.44-.15,.96-.42,1.89-.78,2.76-.31,.75-.7,1.47-1.14,2.14-.25,.37-.51,.72-.8,1.06-.47,.56-1,1.08-1.56,1.55-.35,.29-.72,.56-1.1,.81-1.87,1.22-4.08,1.92-6.46,1.92-1.16,0-2.29-.17-3.35-.48-.94-.27-1.82-.66-2.65-1.15-.92-.54-1.77-1.21-2.52-1.97-.25-.25-.49-.52-.71-.8-.34-.42-.66-.86-.95-1.33-.57-.91-1.01-1.91-1.32-2.97-.23-.76-.38-1.55-.45-2.37-.04-.37-.05-.76-.05-1.14,0-.11,0-.22,0-.34,.02-.76,.11-1.49,.26-2.21,.13-.62,.3-1.21,.52-1.79,.31-.83,.71-1.62,1.19-2.36,.31-.48,.65-.93,1.02-1.36,.47-.55,.99-1.05,1.55-1.5,.26-.21,.52-.4,.79-.59,1.91-1.3,4.2-2.06,6.68-2.06,1.61,0,3.14,.32,4.54,.9,.98,.41,1.9,.95,2.73,1.59,.75,.58,1.42,1.24,2.02,1.98,.22,.27,.43,.56,.63,.85,.31,.46,.59,.94,.83,1.44,.39,.8,.7,1.64,.91,2.53,.19,.8,.31,1.63,.33,2.48,0,.14,0,.28,0,.42Z"/><circle class="cls-11" cx="69.73" cy="8.34" r="1.47"/><circle class="cls-11" cx="65.72" cy="6.14" r=".78"/><circle class="cls-11" cx="73.05" cy="14.97" r=".87"/><circle class="cls-11" cx="80.83" cy="14.8" r="1.07"/><circle class="cls-11" cx="74.52" cy="22.2" r=".34"/><circle class="cls-11" cx="76.51" cy="19.61" r=".34"/><circle class="cls-11" cx="76.1" cy="11.29" r=".34"/><circle class="cls-11" cx="71.72" cy="4.25" r=".22"/><circle class="cls-11" cx="77.14" cy="7.03" r=".16"/><circle class="cls-11" cx="64.2" cy="12.99" r="2.11"/><circle class="cls-11" cx="67.41" cy="22" r="1.07"/><g class="cls-27"><path class="cls-3" d="M76.33,25.84c-1.73,.99-3.73,1.55-5.86,1.55-1.16,0-2.29-.17-3.35-.48-.94-.27-1.82-.66-2.65-1.15-.92-.54-1.77-1.21-2.52-1.97-.25-.25-.49-.52-.71-.8-.34-.42-.66-.86-.95-1.33-.57-.91-1.01-1.91-1.32-2.97-.23-.76-.38-1.55-.45-2.37-.04-.37-.05-.75-.05-1.14,0-.11,0-.22,0-.34,.02-.75,.11-1.49,.26-2.21,.13-.62,.3-1.21,.52-1.79,.31-.83,.71-1.62,1.19-2.36,.31-.48,.65-.93,1.02-1.36,.47-.55,.99-1.05,1.55-1.5,.26-.21,.52-.4,.79-.59,.36-.25,.74-.47,1.12-.68-.24,.54-.45,1.1-.63,1.68-.22,.69-.39,1.41-.52,2.14-.15,.86-.24,1.74-.26,2.65,0,.13,0,.27,0,.4,0,.46,.02,.92,.05,1.36,.07,.98,.22,1.93,.45,2.84,.31,1.27,.76,2.46,1.32,3.56,.29,.56,.6,1.09,.95,1.59,.23,.33,.46,.65,.71,.95,.75,.91,1.59,1.71,2.52,2.36,.82,.58,1.71,1.05,2.65,1.38,1.06,.38,2.19,.58,3.35,.58,.27,0,.55-.01,.82-.03Z"/></g></g><g><line class="cls-23" x1="1015.54" y1="323.88" x2="1015.54" y2="364.56"/><circle class="cls-10" cx="1015.54" cy="322.27" r="3.27"/><path class="cls-13" d="M963.18,395.1h37.15c6.82,0,12.36,5.54,12.36,12.36v108.57c0,6.82-5.54,12.36-12.36,12.36h-37.15v-133.28h0Z" transform="translate(280.13 -367.85) rotate(24.48)"/><path class="cls-24" d="M1010.46,451.01s45,54,25.5,78.76c-19.5,24.75-78.01-28.5-78.01-28.5"/><path class="cls-16" d="M919.33,441.64c-33.75-.75-45-33-45-33-5.99-4.36-6.86-8.12-6.89-9.86,0-.37-.15-.71-.4-.97-.16-.17-.38-.31-.62-.38l-.88-.26c-.06-.02-.13-.04-.19-.07-.5-.19-.94-.53-1.25-.98-.13-.2-.27-.4-.39-.59-2.96-4.74-2.21-10.11-1.41-13.08,.36-1.37,1.59-2.3,3-2.3h.09c.37,0,.72,.11,1.05,.28,.19,.09,.38,.09,.38-.28,0-1.01,.43-2.07,1.25-2.87,.11-.1,.23-.2,.35-.28,.35-.26,.74-.42,1.16-.51,.23-.06,.47-.08,.72-.08h5.07c.12,0,.23-.06,.29-.15,.06-.08,.08-.18,.06-.29l-3.4-14.96c-.25-1.07-.08-2.22,.59-3.08,.66-.85,1.79-1.41,3.66-.28,4.09,2.45,7.46,15.22,8.11,18.71,.02,.11,.17,.09,.17-.02l.64-15.94c.07-1.82,.73-3.59,1.98-4.91,.14-.15,.28-.28,.41-.38,1.66-1.39,2.93-.2,3.75,1.17,.72,1.22,1.07,2.63,1.1,4.04l.71,29.95s.47,1.88,1.45,4.58c.13,.38,.29,.79,.45,1.21,.07,.2,.16,.42,.25,.64,.08,.21,.17,.43,.26,.64,.02,.07,.05,.13,.08,.2,.15,.38,.31,.76,.49,1.15,.1,.23,.2,.46,.31,.69,.22,.47,.43,.94,.67,1.41,.69,1.4,1.47,2.81,2.36,4.17,.14,.23,.29,.44,.44,.66,.13,.19,.26,.38,.4,.56,.02,.03,.04,.06,.06,.09,.19,.26,.38,.52,.57,.77,1.25,1.62,2.65,3.08,4.22,4.22,8.25,6,25.5,1.5,27,1.5,0,0,20.63,29.63-13.13,28.88Z"/><path class="cls-13" d="M975.41,429.51c1.54,2.81,3.55,8.18,3.55,17,0,14.25-12.99,45-12.99,45l-2.99,12.23-.74,19.52-24.44-11.13,37.62-82.63Z"/><polygon class="cls-13" points="1010.59 398.83 978.06 423.68 993.02 390.83 1010.59 398.83"/><g><path class="cls-14" d="M933.85,484.36s-.1-5.41-10.67-13.95c-9.77-7.89-40.64-12.54-64.82-4.61-3.46,1.14-6.69,2.89-9.55,5.14s-7.15,5.7-10.23,8.44c-1.55,1.37-3.99,.73-4.65-1.23-1.91-5.66-6.29-14.91-14.98-17.43-11.51-3.35-21.12,4.72-23.54,8.51-.37,.58-.4,1.31-.09,1.93l23.81,47.75c.45,.9,1.5,1.32,2.44,.97,5.27-1.94,21.61-8.18,26.04-12.78s25.47-5.55,30.93-5.55c6.75,0,17.72,5.46,18.75,5.25,2.17-.45,2.04,.15,9.75,3.75,10.29,4.8,3.49,1.18,7.86,1.31,4.37,.13,10.18-.61,15.67-7.79,5.48-7.18,3.27-19.72,3.27-19.72Z"/><path class="cls-3" d="M794.65,470.16l-.67,.34h0c-1.9,1.09-2.62,3.52-1.6,5.53,.64,1.25,1.8,2.05,3.06,2.26-.57,1.15-.61,2.56,.03,3.81,.64,1.25,1.8,2.05,3.06,2.26-.57,1.15-.61,2.56,.03,3.81,.64,1.25,1.8,2.05,3.06,2.26-.57,1.15-.61,2.56,.03,3.81,.64,1.25,1.8,2.05,3.06,2.26-.57,1.15-.61,2.56,.03,3.81s1.8,2.05,3.06,2.26c-.57,1.15-.61,2.56,.03,3.81,.64,1.25,1.8,2.05,3.06,2.26-.57,1.15-.61,2.56,.03,3.81,.64,1.25,1.8,2.05,3.06,2.26-.57,1.15-.61,2.56,.03,3.81,1.03,2.02,3.42,2.86,5.42,1.96l-3.09-6.07-.73-1.43-.17-.34,3.99,7.83,.67-.34-25.47-49.96Zm9.34,19.97l-.07-.14,1.64,3.21-1.56-3.07Zm6.19,12.13l-.73-1.43-.85-1.67,2.76,5.41-1.18-2.31Z"/></g><g><path class="cls-3" d="M833.81,552.98l-.38,.64h0c-1.04,1.93-.35,4.37,1.59,5.54,1.2,.72,2.61,.78,3.8,.29,.13,1.28,.84,2.49,2.05,3.21,1.2,.72,2.61,.78,3.8,.29,.13,1.28,.84,2.49,2.05,3.21,1.2,.72,2.61,.78,3.8,.29,.13,1.28,.84,2.49,2.05,3.21,1.2,.72,2.61,.78,3.8,.29,.13,1.28,.84,2.49,2.05,3.21s2.61,.78,3.8,.29c.13,1.28,.84,2.49,2.05,3.21,1.2,.72,2.61,.78,3.8,.29,.13,1.28,.84,2.49,2.05,3.21,1.2,.72,2.61,.78,3.8,.29,.13,1.28,.84,2.49,2.05,3.21,1.94,1.16,4.42,.61,5.63-1.22l-5.84-3.5-1.37-.82-.33-.19,7.54,4.51,.39-.64-48.12-28.79Zm18.52,11.95l-.13-.08,3.09,1.85-2.96-1.77Zm11.69,6.99l-1.37-.82-1.61-.96,5.21,3.12-2.23-1.33Z"/><path class="cls-16" d="M958.43,489.94s-3-4.5-16.5-6c-12.66-1.41-41.8,11.69-57.75,31.87-1.96,2.48-3.44,5.31-4.48,8.3-1.59,4.57-4.02,11.79-4.96,15.94-.16,.69-1,.95-1.52,.47-3.46-3.2-13.88-11.65-24.3-8.58-12.75,3.75-15.97,18.07-15.11,21.03l48.12,28.79s14.62-18.69,16.12-26.2,18-21,18-21c0,0,3.75-5.25,15-6.75s22.5-2.25,26.25-4.5c3.75-2.25,8.25-6,9-15,.75-9-7.88-18.38-7.88-18.38Z"/></g><path class="cls-16" d="M1005.96,417.26l-62.26-19.5s-13.5,12-21,24.75c-7.5,12.75-22.5,50.25-22.5,64.51s6.75,20.25,6.75,20.25l47.25,12,15-10.5s26.25-55.51,34.5-62.26c8.25-6.75,2.25-29.25,2.25-29.25Z"/><path class="cls-19" d="M882.2,425.51c-.46,0-.92-.14-1.32-.43-1-.73-1.22-2.14-.49-3.14,.26-.36,6.48-8.77,20.31-15.69,1.11-.55,2.46-.1,3.02,1.01,.56,1.11,.1,2.46-1.01,3.02-12.78,6.39-18.63,14.24-18.69,14.32-.44,.6-1.13,.92-1.82,.92Z"/><path class="cls-19" d="M880.38,421.94c.22-.3,4.64-6.27,14.22-12.27,.15,.53,.25,.89,.29,1.06"/><path class="cls-19" d="M900.69,406.25l-.02,.02s0,0,0,0c0,0,.02,0,.03-.01Z"/><path class="cls-12" d="M1011.22,399.36c-8.06,12.14-21.85,20.15-37.52,20.15,14.26,0,29.26-9.91,37.5-20.25,0,.04,.02,.07,.02,.11Z"/><g><g><path class="cls-16" d="M932.62,485.19s-.1-5.41-10.67-13.95c-9.77-7.89-40.64-12.54-64.82-4.61-3.46,1.14-6.69,2.89-9.55,5.14s-7.15,5.7-10.23,8.44c-1.55,1.37-3.99,.73-4.65-1.23-1.91-5.66-6.29-14.91-14.98-17.43-11.51-3.35-21.12,4.72-23.54,8.51-.37,.58-.4,1.31-.09,1.93l23.81,47.75c.45,.9,1.5,1.32,2.44,.97,5.27-1.94,21.61-8.18,26.04-12.78s25.47-5.55,30.93-5.55c6.75,0,17.72,5.46,18.75,5.25,2.17-.45,2.04,.15,9.75,3.75,10.29,4.8,3.49,1.18,7.86,1.31s10.18-.61,15.67-7.79c5.48-7.18,3.27-19.72,3.27-19.72Z"/><path class="cls-3" d="M793.42,470.99l-.67,.34h0c-1.9,1.09-2.62,3.52-1.6,5.53,.64,1.25,1.8,2.05,3.06,2.26-.57,1.15-.61,2.56,.03,3.81,.64,1.25,1.8,2.05,3.06,2.26-.57,1.15-.61,2.56,.03,3.81,.64,1.25,1.8,2.05,3.06,2.26-.57,1.15-.61,2.56,.03,3.81,.64,1.25,1.8,2.05,3.06,2.26-.57,1.15-.61,2.56,.03,3.81s1.8,2.05,3.06,2.26c-.57,1.15-.61,2.56,.03,3.81,.64,1.25,1.8,2.05,3.06,2.26-.57,1.15-.61,2.56,.03,3.81,.64,1.25,1.8,2.05,3.06,2.26-.57,1.15-.61,2.56,.03,3.81,1.03,2.02,3.42,2.86,5.42,1.96l-3.09-6.07-.73-1.43-.17-.34,3.99,7.83,.67-.34-25.47-49.96Zm9.34,19.97l-.07-.14,1.64,3.21-1.56-3.07Zm6.19,12.13l-.73-1.43-.85-1.67,2.76,5.41-1.18-2.31Z"/><path class="cls-3" d="M832.58,553.8l-.38,.64h0c-1.04,1.93-.35,4.37,1.59,5.54,1.2,.72,2.61,.78,3.8,.29,.13,1.28,.84,2.49,2.05,3.21,1.2,.72,2.61,.78,3.8,.29,.13,1.28,.84,2.49,2.05,3.21,1.2,.72,2.61,.78,3.8,.29,.13,1.28,.84,2.49,2.05,3.21,1.2,.72,2.61,.78,3.8,.29,.13,1.28,.84,2.49,2.05,3.21s2.61,.78,3.8,.29c.13,1.28,.84,2.49,2.05,3.21,1.2,.72,2.61,.78,3.8,.29,.13,1.28,.84,2.49,2.05,3.21,1.2,.72,2.61,.78,3.8,.29,.13,1.28,.84,2.49,2.05,3.21,1.94,1.16,4.42,.61,5.63-1.22l-5.84-3.5-1.37-.82-.33-.19,7.54,4.51,.39-.64-48.12-28.79Zm18.52,11.95l-.13-.08,3.09,1.85-2.96-1.77Zm11.69,6.99l-1.37-.82-1.61-.96,5.21,3.12-2.23-1.33Z"/><path class="cls-16" d="M965.08,509.14c-.73,8.72-4.97,12.5-8.64,14.78-.12,.08-.24,.15-.36,.22-3.75,2.25-15,3-26.25,4.5s-15,6.75-15,6.75c0,0-2.97,2.43-6.51,5.81-1.09,1.04-2.23,2.16-3.35,3.33-3.83,3.99-7.47,8.52-8.14,11.86-1.5,7.5-16.12,26.19-16.12,26.19l-48.12-28.79c-.08-.29-.13-.7-.13-1.19,0-.25,0-.51,.04-.8,0-.04,0-.08,0-.12,.03-.3,.07-.62,.12-.96,.03-.23,.08-.46,.13-.71,.03-.16,.06-.31,.1-.48,.11-.52,.26-1.07,.43-1.63,1.64-5.4,5.9-12.63,14.42-15.14,10.42-3.06,20.84,5.39,24.3,8.58,.52,.48,1.36,.22,1.52-.47,.94-4.15,3.37-11.37,4.96-15.94,.03-.08,.06-.17,.09-.25,.51-1.43,1.12-2.81,1.83-4.13,.74-1.37,1.59-2.69,2.57-3.92,2.86-3.62,6.14-7,9.67-10.13,12.71-11.22,28.71-18.95,40.02-21.19,3.09-.61,5.83-.81,8.06-.56,13.5,1.5,16.5,6,16.5,6,0,0,6.6,7.18,7.75,15,.16,1.12,.22,2.25,.13,3.38Z"/></g><path class="cls-19" d="M862.41,507.12c-1.22,0-2.23-.98-2.25-2.21-.44-24.56-12.38-31.95-12.5-32.03-1.07-.64-1.42-2.02-.78-3.08,.64-1.07,2.02-1.42,3.08-.78,.58,.35,14.21,8.77,14.7,35.81,.02,1.24-.97,2.27-2.21,2.29h-.04Z"/><path class="cls-19" d="M908.05,545.87c-.3,.14-.61,.2-.93,.2-.85,0-1.67-.49-2.05-1.31-.04-.07-.07-.15-.1-.23,1.13-1.17,2.27-2.3,3.35-3.33,.3,.56,.59,1.12,.85,1.69,.52,1.13,.02,2.47-1.12,2.98Z"/><path class="cls-19" d="M908.32,541.21c-1.09,1.04-2.23,2.16-3.35,3.33-.75-1.6-1.71-3.1-2.82-4.51-7.07-8.94-20.21-14.12-23.58-15.34-.49-.18-.78-.28-.8-.28-1.19-.38-1.83-1.65-1.45-2.83,.38-1.19,1.64-1.83,2.83-1.46,.11,.04,.56,.18,1.25,.43,4.1,1.49,17.12,6.77,24.86,16.16,1.16,1.4,2.2,2.9,3.07,4.49Z"/></g><path class="cls-19" d="M938,401.9s-7.12,.93-11.51,9.2c-.86,1.61-1.77,3.2-2.78,4.72-2.52,3.78-7,11.78-7,20.94,0,0,18.33-27,21.54-27.38s-.25-7.49-.25-7.49Z"/><path class="cls-16" d="M912.74,441.06c-13.41-2.06-22.69-9.31-28.77-16.43-1.04-1.22-2-2.45-2.85-3.64-4.82-6.66-6.8-12.36-6.8-12.36-5.99-4.36-6.86-8.12-6.89-9.86,0-.37-.15-.71-.4-.97-.16-.17-.38-.31-.62-.38l-.88-.26c-.06-.02-.13-.04-.19-.07-.5-.19-.94-.53-1.25-.98-.13-.2-.27-.4-.39-.59-2.96-4.74-2.21-10.11-1.41-13.08,.36-1.37,1.59-2.3,3-2.3h.09c.37,0,.72,.11,1.05,.28,.19,.09,.38,.09,.38-.28,0-1.01,.43-2.07,1.25-2.87,.11-.1,.23-.2,.35-.28,.35-.26,.74-.42,1.16-.51,.23-.06,.47-.08,.72-.08h5.07c.12,0,.23-.06,.29-.15,.06-.08,.08-.18,.06-.29l-3.4-14.96c-.25-1.07-.08-2.22,.59-3.08,.66-.85,1.79-1.41,3.66-.28,4.09,2.45,7.46,15.22,8.11,18.71,.02,.11,.17,.09,.17-.02l.64-15.94c.07-1.82,.73-3.59,1.98-4.91,.14-.15,.28-.28,.41-.38,1.66-1.39,2.93-.2,3.75,1.17,.72,1.22,1.07,2.63,1.1,4.04l.71,29.95s.47,1.88,1.45,4.58c.13,.38,.29,.79,.45,1.21,.07,.2,.16,.42,.25,.64,.08,.21,.17,.43,.26,.64,.02,.07,.05,.13,.08,.2,.15,.38,.31,.76,.49,1.15,.1,.23,.2,.46,.31,.69,.22,.47,.43,.94,.67,1.41,.69,1.4,1.47,2.81,2.36,4.17,.14,.23,.29,.44,.44,.66,.13,.19,.26,.38,.4,.56,.02,.03,.04,.06,.06,.09,.19,.26,.38,.52,.57,.77,.38,.49,.77,.97,1.19,1.43,.35,.39,.71,.77,1.08,1.13-.2,.28-.47,.51-.79,.67-.85,.43-1.67,.86-2.46,1.3l1.08,.82c14.31,9.74,12.89,22.96,11.42,28.68Z"/><path class="cls-16" d="M919.33,441.64c-.67-.02-1.33-.05-1.98-.09-1.23-.07-2.42-.18-3.59-.35,1.02-2.44,2.05-4.79,3.05-6.98v-.02c.71-8.08,4.61-14.96,6.89-18.38,.41-.62,.8-1.25,1.18-1.88,1.59-.2,3.03-.42,4.22-.63,.05,0,.08,0,.12-.02,1.7-.28,2.88-.53,3.23-.53,0,0,.34,.49,.86,1.33,3.53,5.75,15.46,28.2-13.98,27.55Z"/><path class="cls-16" d="M1003.71,446.51c-8.25,6.75-34.5,62.26-34.5,62.26l-15,10.5-47.25-12s-6.75-6-6.75-20.25c0-8.66,5.53-25.88,11.55-40.93,.67-1.66,1.34-3.29,2.01-4.88,1.02-2.44,2.05-4.79,3.05-6.98v-.02c2.17-4.78,4.22-8.85,5.89-11.69,1.87-3.17,4.1-6.29,6.41-9.2,.02-.02,.05-.05,.07-.08,3.22-4.04,6.57-7.66,9.24-10.38,3.11-3.15,5.29-5.09,5.29-5.09l62.26,19.5s6,22.5-2.25,29.25Z"/><path class="cls-19" d="M903.5,409.6c-.2,.28-.47,.51-.79,.67-.85,.43-1.67,.86-2.46,1.3-11.07,6.11-16.18,12.95-16.23,13.02-.02,.02-.02,.03-.04,.05-.44,.57-1.1,.88-1.78,.88-.47,0-.92-.14-1.33-.44-1-.74-1.22-2.14-.49-3.14,.04-.07,.29-.4,.75-.95,2.04-2.44,8.25-9.08,19.54-14.73,0,0,.02,0,.03-.01,1.11-.56,2.46-.11,3.02,1,.08,.16,.14,.33,.18,.5,.15,.65,0,1.33-.39,1.85Z"/><path class="cls-19" d="M938.24,409.38c-.83,.1-2.67,1.97-4.94,4.7-2.88,3.45-6.44,8.26-9.53,12.56-3.92,5.47-7.08,10.11-7.08,10.11,0-.86,.04-1.71,.11-2.54v-.02c.71-8.08,4.61-14.96,6.89-18.38,.41-.62,.8-1.25,1.18-1.88,.56-.93,1.09-1.88,1.6-2.84,.06-.12,.13-.24,.2-.35,4.4-7.94,11.31-8.84,11.31-8.84,0,0,.18,.38,.42,.95,.81,1.95,2.3,6.24-.17,6.53Z"/><path class="cls-26" d="M1003.71,446.51c-8.25,6.75-34.5,62.26-34.5,62.26l-3.08,2.16,2.33-7.41-2.49-12s12.99-30.75,12.99-45c0-8.82-2.01-14.2-3.55-17-.94-1.73-1.7-2.5-1.7-2.5l4.36-3.33,14.07-10.75,13.82,4.33s6,22.5-2.25,29.25Z"/><path class="cls-19" d="M1011.21,399.26c3,15-22.46,27.75-39,27.75-19.78,0-36.19-14.45-39.24-33.37,7.19,15.29,22.73,25.87,40.74,25.87,14.26,0,29.26-9.91,37.5-20.25Z"/><path class="cls-16" d="M1018.71,374.51c0,9.19-2.75,17.74-7.49,24.86-8.06,12.14-21.85,20.15-37.52,20.15-.42,0-.83,0-1.25-.02-.35-.02-.71-.02-1.07-.05-.74-.04-1.47-.09-2.21-.16-.16-.02-.31-.03-.47-.05-.28-.03-.55-.06-.82-.1-.28-.03-.55-.07-.82-.11-.23-.03-.46-.07-.7-.11-.22-.03-.43-.07-.64-.1-.36-.06-.72-.13-1.07-.2-.39-.08-.77-.16-1.16-.26-.35-.08-.71-.16-1.06-.26-.71-.19-1.43-.39-2.13-.61-.35-.11-.68-.22-1.02-.32-.72-.25-1.43-.51-2.13-.78-.67-.27-1.34-.56-1.99-.85-.34-.15-.67-.31-.99-.46-.33-.16-.66-.32-.98-.49-.32-.16-.64-.33-.96-.5-.32-.17-.64-.35-.95-.53,0,0,0,0-.02,0-.57-.33-1.14-.67-1.69-1.03t-.02,0s-.09-.06-.13-.08c-.25-.16-.51-.33-.76-.5-.08-.05-.16-.1-.25-.16-.23-.15-.46-.31-.68-.47-.69-.48-1.36-.99-2.03-1.52-.16-.13-.34-.26-.5-.4-.35-.29-.69-.57-1.03-.86-.38-.33-.75-.66-1.11-1-.36-.33-.71-.67-1.05-1.01-.05-.05-.11-.11-.16-.16-.34-.34-.68-.69-1.01-1.04-.34-.36-.67-.73-1-1.1-.4-.46-.79-.92-1.17-1.4-.24-.29-.48-.59-.71-.9-.12-.16-.24-.31-.35-.47-.25-.32-.49-.66-.72-1-.3-.42-.59-.84-.87-1.28,0,0-.02-.02-.02-.04-.23-.35-.45-.69-.67-1.04-.28-.45-.55-.91-.81-1.37-.1-.17-.19-.33-.29-.5-.18-.33-.35-.65-.53-.99-.27-.52-.53-1.04-.78-1.58-2.73-5.81-4.26-12.29-4.26-19.13,0-24.86,20.15-45,45-45,11.96,0,22.82,4.67,30.88,12.26,8.69,8.21,14.12,19.85,14.12,32.75Z"/><ellipse class="cls-3" cx="974.46" cy="374.51" rx="41.25" ry="39"/><path class="cls-25" d="M952.62,349.94c2.74-2.37,5.83-4.33,9.16-5.75"/><path class="cls-25" d="M941.09,369.88c.91-5.2,3.14-10.13,6.3-14.35"/><path class="cls-28" d="M987.42,424.23h0c-2.27,.35-4.59,.53-6.95,.53-11.95,0-22.81-4.66-30.87-12.25,.56,.36,1.12,.7,1.69,1.03,0,0,.02,0,.02,0,.32,.18,.63,.36,.95,.53,.32,.17,.64,.35,.96,.5,.32,.17,.65,.33,.98,.49,.32,.16,.66,.31,.99,.46,.65,.3,1.32,.58,1.99,.85,.71,.27,1.41,.53,2.13,.78,.34,.11,.67,.22,1.02,.32,.71,.23,1.41,.42,2.13,.61,.35,.09,.7,.17,1.06,.26,.38,.09,.77,.17,1.16,.26,.35,.08,.71,.14,1.07,.2,.21,.04,.42,.07,.64,.1,.23,.05,.47,.08,.7,.11,.27,.04,.54,.08,.82,.11,.27,.04,.55,.07,.82,.1,.16,.02,.31,.04,.47,.05,.73,.08,1.47,.13,2.21,.16,.35,.02,.71,.03,1.07,.05,.42,0,.83,.02,1.25,.02,15.67,0,29.46-8,37.52-20.15,2.06,10.75-10.46,20.33-23.81,24.86Z"/><g><g><path class="cls-16" d="M929.35,504.91c-5.48,7.18-11.3,7.91-15.67,7.79-4.37-.13,2.42,3.5-7.86-1.31-7.72-3.6-7.58-4.2-9.75-3.75-.32,.07-1.61-.42-3.45-1.13-.05-.02-.1-.04-.16-.06-3.96-1.52-10.3-3.96-14.86-4.06-.1,0-.19,0-.28,0-2.29,0-7.31,.19-12.71,.74-1.49,.15-2.99,.33-4.49,.53-6.05,.84-11.72,2.2-13.73,4.28-4.43,4.6-20.76,10.85-26.03,12.78-.56,.2-1.16,.14-1.65-.13-.33-.19-.61-.47-.79-.83l-16.74-33.57-7.07-14.18c-.31-.62-.28-1.35,.1-1.94,.51-.79,1.33-1.78,2.42-2.79,4.11-3.88,12.02-8.36,21.12-5.72,8.68,2.52,13.06,11.77,14.98,17.42,.66,1.97,3.1,2.6,4.64,1.23,2.88-2.57,6.7-5.65,9.62-7.97,.2-.16,.41-.32,.61-.48,1.02-.8,2.09-1.54,3.2-2.21,2-1.22,4.13-2.21,6.35-2.93,24.17-7.94,55.05-3.29,64.81,4.61,10.57,8.54,10.67,13.94,10.67,13.94,0,0,0,.05,.02,.14,.22,1.39,1.85,12.85-3.29,19.58Z"/><path class="cls-3" d="M793.42,470.99l-.67,.34h0c-1.9,1.09-2.62,3.52-1.6,5.53,.64,1.25,1.8,2.05,3.06,2.26-.57,1.15-.61,2.56,.03,3.81,.64,1.25,1.8,2.05,3.06,2.26-.57,1.15-.61,2.56,.03,3.81,.64,1.25,1.8,2.05,3.06,2.26-.57,1.15-.61,2.56,.03,3.81,.64,1.25,1.8,2.05,3.06,2.26-.57,1.15-.61,2.56,.03,3.81s1.8,2.05,3.06,2.26c-.57,1.15-.61,2.56,.03,3.81,.64,1.25,1.8,2.05,3.06,2.26-.57,1.15-.61,2.56,.03,3.81,.64,1.25,1.8,2.05,3.06,2.26-.57,1.15-.61,2.56,.03,3.81,1.03,2.02,3.42,2.86,5.42,1.96l-3.09-6.07-.73-1.43-.17-.34,3.99,7.83,.67-.34-25.47-49.96Zm9.34,19.97l-.07-.14,1.64,3.21-1.56-3.07Zm6.19,12.13l-.73-1.43-.85-1.67,2.76,5.41-1.18-2.31Z"/><path class="cls-3" d="M832.58,553.8l-.38,.64h0c-1.04,1.93-.35,4.37,1.59,5.54,1.2,.72,2.61,.78,3.8,.29,.13,1.28,.84,2.49,2.05,3.21,1.2,.72,2.61,.78,3.8,.29,.13,1.28,.84,2.49,2.05,3.21,1.2,.72,2.61,.78,3.8,.29,.13,1.28,.84,2.49,2.05,3.21,1.2,.72,2.61,.78,3.8,.29,.13,1.28,.84,2.49,2.05,3.21s2.61,.78,3.8,.29c.13,1.28,.84,2.49,2.05,3.21,1.2,.72,2.61,.78,3.8,.29,.13,1.28,.84,2.49,2.05,3.21,1.2,.72,2.61,.78,3.8,.29,.13,1.28,.84,2.49,2.05,3.21,1.94,1.16,4.42,.61,5.63-1.22l-5.84-3.5-1.37-.82-.33-.19,7.54,4.51,.39-.64-48.12-28.79Zm18.52,11.95l-.13-.08,3.09,1.85-2.96-1.77Zm11.69,6.99l-1.37-.82-1.61-.96,5.21,3.12-2.23-1.33Z"/><path class="cls-16" d="M965.08,509.14c-.73,8.72-4.97,12.5-8.64,14.78-.12,.08-.24,.15-.36,.22-3.75,2.25-15,3-26.25,4.5s-15,6.75-15,6.75c0,0-2.97,2.43-6.51,5.81-1.09,1.04-2.23,2.16-3.35,3.33-3.83,3.99-7.47,8.52-8.14,11.86-1.5,7.5-16.12,26.19-16.12,26.19l-48.12-28.79c-.08-.29-.13-.7-.13-1.19,0-.25,0-.51,.04-.8,0-.04,0-.08,0-.12,.03-.3,.07-.62,.12-.96,.03-.23,.08-.46,.13-.71,.03-.16,.06-.31,.1-.48,.11-.52,.26-1.07,.43-1.63,1.64-5.4,5.9-12.63,14.42-15.14,10.42-3.06,20.84,5.39,24.3,8.58,.52,.48,1.36,.22,1.52-.47,.94-4.15,3.37-11.37,4.96-15.94,.03-.08,.06-.17,.09-.25,.51-1.43,1.12-2.81,1.83-4.13,.74-1.37,1.59-2.69,2.57-3.92,2.86-3.62,6.14-7,9.67-10.13,12.71-11.22,28.71-18.95,40.02-21.19,3.09-.61,5.83-.81,8.06-.56,13.5,1.5,16.5,6,16.5,6,0,0,6.6,7.18,7.75,15,.16,1.12,.22,2.25,.13,3.38Z"/></g><path class="cls-19" d="M864.66,504.83c.02,1.24-.97,2.27-2.21,2.29h-.04c-1.22,0-2.23-.98-2.25-2.21,0-.42-.02-.83-.04-1.25,1.49-.2,3-.38,4.49-.53,.02,.56,.04,1.13,.05,1.7Z"/><path class="cls-26" d="M864.66,504.83c.02,1.24-.97,2.27-2.21,2.29h-.04c-1.22,0-2.23-.98-2.25-2.21,0-.42-.02-.83-.04-1.25,1.49-.2,3-.38,4.49-.53,.02,.56,.04,1.13,.05,1.7Z"/><path class="cls-19" d="M864.61,503.13c-1.49,.15-2.99,.33-4.49,.53-.08-2.3-.26-4.46-.52-6.45-2.43-18.45-11.84-24.26-11.94-24.32-.28-.16-.51-.38-.68-.63-.5-.71-.57-1.67-.1-2.46,.63-1.07,2.02-1.42,3.08-.78,.07,.05,.37,.23,.82,.56,2.66,1.98,10.96,9.44,13.28,27.03,.26,2.04,.45,4.22,.54,6.53Z"/><path class="cls-19" d="M908.05,545.87c-.3,.14-.61,.2-.93,.2-.85,0-1.67-.49-2.05-1.31-.04-.07-.07-.15-.1-.23,1.13-1.17,2.27-2.3,3.35-3.33,.3,.56,.59,1.12,.85,1.69,.52,1.13,.02,2.47-1.12,2.98Z"/><path class="cls-26" d="M908.05,545.87c-.3,.14-.61,.2-.93,.2-.85,0-1.67-.49-2.05-1.31-.04-.07-.07-.15-.1-.23,1.13-1.17,2.27-2.3,3.35-3.33,.3,.56,.59,1.12,.85,1.69,.52,1.13,.02,2.47-1.12,2.98Z"/><path class="cls-19" d="M908.32,541.21c-1.09,1.04-2.23,2.16-3.35,3.33-.75-1.6-1.71-3.1-2.82-4.51-7.07-8.94-20.21-14.12-23.58-15.34-.49-.18-.78-.28-.8-.28-1.19-.38-1.83-1.65-1.45-2.83,.38-1.19,1.64-1.83,2.83-1.46,.11,.04,.56,.18,1.25,.43,4.1,1.49,17.12,6.77,24.86,16.16,1.16,1.4,2.2,2.9,3.07,4.49Z"/></g><g class="cls-26"><g><path d="M897.81,501.42c-1.85,1.61-3.65,3.29-5.34,5.04-.07,.08-.16,.16-.23,.24-3.17-1.06-11.54-4.11-14.63-4.3-.1,0-.19,0-.28,0-2.29,0-7.31,.19-12.71,.74-1.49,.15-2.99,.33-4.49,.53-6.05,.84-11.72,2.2-13.73,4.28-4.43,4.6-20.76,10.85-26.03,12.78-.56,.2-1.16,.14-1.65-.13-.33-.19-.61-.47-.79-.83l-16.74-33.57-7.07-14.18c-.31-.62-.28-1.35,.1-1.94,.51-.79,1.33-1.78,2.42-2.79l17.62,35.32c3.46,6.93,11.72,9.98,18.83,6.91,5.98-2.58,12.32-5.72,14.82-8.32,1.79-1.85,6.46-3.13,11.72-3.98,1.46-.23,2.96-.43,4.46-.61,6.14-.71,12.18-.95,14.75-.95,4.08,0,14.95,4.25,18.98,5.78Z"/><path d="M967.71,509.52c-.73,8.72-7.43,12.16-11.27,14.41-.12,.08-.24,.15-.36,.22-3.75,2.25-15,3-26.25,4.5s-15,6.75-15,6.75c0,0-2.97,2.43-6.51,5.81-1.09,1.04-2.23,2.16-3.35,3.33-3.83,3.99-7.47,8.52-8.14,11.86-1.5,7.5-16.12,26.19-16.12,26.19l-48.12-28.79c-.08-.29-.13-.7-.13-1.19,0-.25,0-.52,.04-.8,0-.04,0-.08,0-.12,.03-.3,.07-.62,.12-.96,.03-.23,.08-.46,.13-.71,.03-.16,.06-.31,.1-.48,.11-.52,.26-1.07,.43-1.63l35.88,21.47c6.27,3.75,14.36,1.95,18.47-4.09,3.79-5.55,7.71-11.96,8.45-15.65,.55-2.72,3.08-6.24,6.07-9.62,1-1.13,2.06-2.24,3.11-3.31,4.45-4.5,8.83-8.08,8.83-8.08,0,0,3.75-5.25,15-6.75s22.5-2.25,26.25-4.5c2.89-1.73,7.4-5.79,9.62-11.63,.62-1.62,1.07-3.37,1.25-5.25,.63,2.03,1.68,6.89,1.5,9Z"/></g></g><path class="cls-26" d="M974.41,505.79c.83,.49,1.58,1.06,2.27,1.7,9.71-12.83,23.05-54.68,23.28-55.4l-1.39,.96c-8.48,12.96-21.73,39.89-27.04,50.88-.01,.06-.02,.12-.03,.19,.95,.59,1.95,1.09,2.91,1.67Z"/><path class="cls-19" d="M912.97,492.47s18.28-10.49,38.01-5.72c0,0,9.97,4.77,14.47,13.77,1.5,3,1.09,6.53-.11,9.91-2.68,7.49-8.9,13.15-16.5,15.49l-3.31,1.02,.67,.05c8.07,.64,16.14-2.07,21.89-7.77,3.37-3.34,6.1-7.77,6.37-13.46,.75-15.75-16.5-22.5-16.5-22.5,0,0-14.25-5.25-27.75-1.5-13.5,3.75-17.23,10.7-17.23,10.7Z"/><g><path class="cls-16" d="M1059.21,422.51s-9,10.5-17.25,10.5c-4.76,0-8.19-.27-10.24-.5-1.42-.16-2.74-.81-3.72-1.85l-3.29-3.65c-1.97-2.09-7.26-8.32-9.75-9.75l-5.25-1.5s-12,3.75-13.5,9.75c-1.5,6-3.75,18.75-.75,23.25,3,4.5,9.75,7.5,15.75,9,6,1.5,15.75,2.25,24.75,1.5,9-.75,15-4.5,16.5-5.25s1.44-2.25,5.6-2.25,17.66-.75,17.66-.75c0,0,5.63-9.38,4.13-12.38s-4.5-15.75-4.5-15.75l-2.25-2.25,2.68-4.13s3.7-4.49-1.36-6.18c-2.32-.78-3.89,.3-4.91,1.7-2.49,3.41-5.28,6.58-8.61,9.18l-1.68,1.31Z"/><g><rect class="cls-17" x="1070.74" y="414.54" width="7.65" height="19.4" rx="3.77" ry="3.77" transform="translate(1294.25 -709.96) rotate(79.42)"/><rect class="cls-17" x="1072.15" y="421.86" width="7.65" height="19.79" rx="3.77" ry="3.77" transform="translate(1302.78 -705.21) rotate(79.42)"/><rect class="cls-17" x="1073.17" y="429.84" width="7.65" height="19.01" rx="3.74" ry="3.74" transform="translate(1311.07 -700.02) rotate(79.42)"/><rect class="cls-17" x="1073.03" y="439.21" width="7.65" height="15.88" rx="3.42" ry="3.42" transform="translate(1318.63 -693.52) rotate(79.42)"/></g><path class="cls-19" d="M1039.26,432.95s-5.55-.2-8.55,8.8c-1.61,4.82,.01,9,1.87,11.84,1.6,2.46,4.28,4.01,7.19,4.33l3.03,.33-4.29,.94c-1.85,.41-3.79,.07-5.37-.96-2.95-1.93-7.12-5.84-6.93-11.98,.26-8.3,.89-8.74,4.23-11.69,2.38-2.11,5.61-2.24,8.74-1.62l.08,.02Z"/><path class="cls-19" d="M1020.05,421.74c.02,.09-.07,.17-.15,.12-1.09-.56-6.2-3.02-10.19-2.36-4.68,.78-4.24,1.19-6.62,2.47s-3.88,4.28-5.38,8.78c-1.5,4.5-1.5,9.75-1.5,11.25s.75,6,2.25,8.25c1.77,2.65,6,5.25,6,5.25,0,0-4.4-.91-6.75-2.25-5.25-3-6.22-8.16-6.75-9.75-1.52-4.55-1.86-17.49,3.21-23.08,.52-.58,1.03-1.16,1.5-1.78,2-2.6,7.36-8.74,13.29-8.14,.27,.03,.53,.06,.78,.1,4.76,.71,8.57,4.35,9.77,9.02l.54,2.12Z"/></g><g><path class="cls-16" d="M1079.57,442.75h0c-.07,.25-.15,.49-.23,.73-1.25,3.59-3.62,7.54-3.62,7.54,0,0-2.17,.12-5.03,.26-.79-.49-1.37-1.29-1.56-2.27l-.15-.79c-.35-1.86,.87-3.64,2.73-4l.32-.06c-2.03,.38-3.98-.96-4.36-2.99l-.03-.16c-.38-2.03,.95-3.98,2.99-4.37-2.04,.36-3.98-.98-4.37-3.02l-.02-.1c-.38-2.05,.97-4.01,3.02-4.4l.19-.04c-2.05,.38-4.02-.97-4.4-3.02l-.02-.1c-.21-1.14,.11-2.25,.79-3.08l-1.31,.68c-1.48,.77-2.59,2.1-3.08,3.7-1.18,3.91-3.09,10.98-1.46,10.98,2.25,0,9.08,11.99,8.25,11.25s-7.5,0-12,0-14.25,6-14.25,6c-8.05,.58-10.81-8.11-11.66-12.19-.83,4.16,.63,7.74,2.28,10.26,1.61,2.46,4.28,4.01,7.19,4.34l2.5,.27c-1.89,.49-4,.88-6.31,1.07-.03,0-.06,0-.09,0-2.17,.18-4.37,.27-6.56,.28-6.88,.05-13.56-.65-18.1-1.79-2.28-.57-4.67-1.36-6.92-2.36,0,0-.02,0-.02-.02-3.66-1.64-6.95-3.85-8.81-6.63-3-4.5-.75-17.25,.75-23.25,1.5-6,13.5-9.75,13.5-9.75l5.25,1.5c1.24,.72,3.17,2.62,5.05,4.61,1.89,2,3.71,4.1,4.7,5.15l3.29,3.65c.97,1.04,2.3,1.7,3.71,1.85,.72,.07,1.61,.16,2.66,.24,1.25,.1,2.75,.18,4.49,.23h.05c.95,.02,1.97,.04,3.06,.04,8.25,0,17.25-10.5,17.25-10.5l1.68-1.31c3.33-2.6,6.12-5.77,8.6-9.17,1.02-1.4,2.59-2.48,4.91-1.7,5.07,1.69,1.37,6.18,1.37,6.18l-2.67,4.12h0l2.25,2.26s.5,2.14,1.2,4.88c.6,2.36,1.35,5.15,2.04,7.4,.46,1.51,.91,2.77,1.26,3.48,.46,.92,.25,2.45-.27,4.11Z"/><path class="cls-19" d="M1042.8,458.25l-4.3,.95c-.88,.2-1.77,.22-2.63,.08-.97-.15-1.9-.49-2.73-1.04-1.15-.75-2.48-1.8-3.68-3.17-1.86-2.15-3.37-5.06-3.26-8.81,.26-8.3,.89-8.74,4.23-11.69,1.15-1.01,2.5-1.57,3.93-1.81,1.55-.25,3.19-.13,4.81,.19l.08,.02s-.13,0-.36,.02h-.05c-1.33,.16-5.63,1.24-8.15,8.78-.17,.53-.31,1.06-.41,1.58-.83,4.16,.63,7.74,2.28,10.26,1.61,2.46,4.28,4.01,7.19,4.34l2.5,.27,.53,.06Z"/><path class="cls-19" d="M1020.05,421.74c.02,.09-.07,.17-.15,.12-1.09-.56-6.2-3.02-10.19-2.36-4.68,.78-4.24,1.19-6.62,2.47s-3.88,4.28-5.38,8.78c-1.5,4.5-1.5,9.75-1.5,11.25s.75,6,2.25,8.25c1.77,2.65,6,5.25,6,5.25,0,0-4.4-.91-6.75-2.25-5.25-3-6.22-8.16-6.75-9.75-1.52-4.55-1.86-17.49,3.21-23.08,.52-.58,1.03-1.16,1.5-1.78,2-2.6,7.36-8.74,13.29-8.14,.27,.03,.53,.06,.78,.1,4.76,.71,8.57,4.35,9.77,9.02l.54,2.12Z"/></g><path class="cls-19" d="M900.95,461.51s-6.75,4.5-.75,30c0,0,1.29-20.4,4.72-28.18,.29-.66,.04-1.43-.6-1.76-1.01-.51-2.47-.97-3.37-.07Z"/><path class="cls-26" d="M1033.14,458.23c.83,.55,1.76,.89,2.73,1.04-8.98,.74-18.68-.02-24.66-1.51-2.28-.57-4.67-1.36-6.92-2.36,0,0-.02,0-.02-.02-.83-.53-4.24-2.79-5.79-5.1,2.23,.35,14.14,2.15,19.52,1.47,5.96-.75,5.21-3.75,5.21-3.75,0,0,.74-10.38,2.99-13.44,.96-1.3,2.19-2.18,3.29-2.77,.68,.38,1.44,.61,2.23,.71,.72,.07,1.61,.16,2.66,.24-1.43,.24-2.78,.8-3.93,1.81-3.34,2.96-3.98,3.4-4.23,11.69-.19,6.14,3.98,10.05,6.93,11.98Z"/><path class="cls-19" d="M1034.72,432.78c-.12,0-.23-.02-.35-.03,.11-.02,.22-.03,.33-.05l.02,.08Z"/><path class="cls-19" d="M1038.02,459.29c-.72,.1-1.45,.1-2.15-.02,.03,0,.06,0,.09,0,.7-.06,1.37-.13,2.03-.23l.03,.25Z"/><path class="cls-26" d="M1068.98,448.21l.15,.79c.19,.98,.77,1.79,1.56,2.27-4.29,.22-10.14,.49-12.63,.49-4.16,0-4.1,1.5-5.6,2.25-1.12,.56-4.72,2.78-10.19,4.18l-2.5-.27c-2.92-.32-5.59-1.88-7.19-4.34-1.65-2.52-3.11-6.11-2.28-10.26,.86,4.08,3.62,12.77,11.66,12.19,0,0,9.75-6,14.25-6s11.22,.78,12,0-6-9.75-8.25-11.25c-1.38-.92,.49-7.79,1.57-11.36,.41-1.36,1.35-2.49,2.61-3.15l1.66-.86c-.67,.83-1,1.94-.79,3.08l.02,.1c.38,2.05,2.36,3.4,4.4,3.02l-.19,.04c-2.05,.38-3.4,2.35-3.02,4.4l.02,.1c.38,2.04,2.33,3.38,4.37,3.02-2.03,.38-3.37,2.33-2.99,4.37l.03,.16c.38,2.03,2.33,3.37,4.36,2.99l-.32,.06c-1.85,.35-3.07,2.14-2.73,4Z"/><path class="cls-26" d="M900.66,406.26c-2.22,1.11-4.24,2.26-6.07,3.41-1.24-4.34-5.78-19.49-9.56-22.1-.45-.31-.89-.62-1.28-.99-2.33-2.27-10.77-9.47-15.33-9.6,.35-.26,.74-.42,1.16-.51,.23-.06,.47-.08,.72-.08h5.07c.12,0,.23-.06,.29-.15,3.79,2.38,9.92,7.28,11.03,7.28,1.5,0,3.75-.75,3.75-1.5s1.4-25.25-2.57-26.91c1.66-1.39,2.93-.2,3.75,1.17,.72,1.22,1.07,2.63,1.1,4.04l.71,29.95s.47,1.88,1.45,4.58c.13,.38,.29,.79,.45,1.21,.07,.2,.16,.42,.25,.64,.08,.21,.17,.43,.26,.64,.02,.07,.05,.13,.08,.2,.15,.38,.31,.76,.49,1.15,.1,.23,.2,.46,.31,.69,.21,.47,.43,.94,.67,1.41,.69,1.4,1.47,2.81,2.36,4.17,.14,.23,.29,.44,.44,.66,.13,.19,.26,.38,.4,.56,.02,.03,.04,.06,.06,.09Z"/><path class="cls-26" d="M877.41,399.36c-1.22,1.4-9.67-1.61-9.67-1.61l-.71,.05c-.16-.17-.38-.31-.62-.38l-.88-.26c-.06-.02-.13-.04-.19-.07-.5-.19-.94-.53-1.25-.98-.13-.2-.27-.4-.39-.59l4.13,1.24c.58,.17,1.19,.23,1.79,.16,1.46-.15,4.16-.49,4.7-1.04,.75-.75,1.5-3,.75-4.5s-7.79-10.65-8.23-11.22c.53,.49,10.13,9.41,10.85,11.6,.75,2.25,.94,6.21-.28,7.61Z"/><path class="cls-26" d="M924.88,413.94c-.38,.64-.77,1.27-1.18,1.88-2.28,3.42-6.17,10.31-6.89,18.38v.02c-1,2.2-2.03,4.55-3.05,6.98-.35-.04-.68-.08-1.02-.14,1.48-5.72,2.9-18.94-11.42-28.68l-1.08-.82c.79-.44,1.61-.87,2.46-1.3,.32-.16,.59-.39,.79-.67,.62,.61,1.27,1.16,1.95,1.66,5,3.64,13.33,3.41,19.43,2.68Z"/><path class="cls-26" d="M958.7,442.51c-4.58,7.31-10.69,16.24-10.69,16.24,0,0-4.31,3.25-11.31,.82-4.17-1.46-10.19-4.95-14.37-7.55-1.7-1.05-2.57-3.01-2.44-4.94,.38,.59,.92,1.09,1.57,1.47,4.11,2.39,10.02,5.62,14.12,6.96,6.89,2.25,11.12-.75,11.12-.75,0,0,6-8.25,10.5-15,2.68-4.01,2.44-6.71,1.8-8.22,.15,.13,.31,.28,.46,.41,0,0,3.82,3.25-.76,10.55Z"/><path class="cls-19" d="M957.2,439.76c-4.5,6.75-10.5,15-10.5,15,0,0-4.23,3-11.12,.75-4.1-1.34-10.01-4.57-14.12-6.96-.65-.38-1.19-.89-1.57-1.47,.07-1,.41-2,1.04-2.85l13.01-17.65c1.79-2.43,4.65-3.68,7.52-3.24,4.43,.68,11.21,2.63,17.54,8.2,.64,1.52,.88,4.21-1.8,8.22Z"/><path class="cls-1" d="M957.2,439.76c-4.5,6.75-10.5,15-10.5,15,0,0-4.23,3-11.12,.75-4.1-1.34-10.01-4.57-14.12-6.96-.65-.38-1.19-.89-1.57-1.47-1.15-1.68-1.16-4,.2-5.72l12.78-16.31c1.76-2.24,4.58-3.4,7.4-2.99,4.46,.64,11.35,2.52,17.69,7.95,0,0,.62,.49,1.05,1.53,.64,1.52,.88,4.21-1.8,8.22Z"/><path class="cls-29" d="M948.76,434.36c-1.91,2.5-4.46,5.57-4.46,5.57,0,0-1.8,1.11-4.72,.28-1.74-.5-4.25-1.69-6-2.58-.28-.14-.5-.33-.67-.55-.49-.62-.49-1.48,.08-2.12l5.43-6.05c.75-.83,1.94-1.26,3.14-1.11,1.9,.24,4.82,.94,7.51,2.95,0,0,.26,.18,.45,.57,.27,.56,.37,1.56-.76,3.05Z"/><g><path class="cls-6" d="M1077.43,427.45c-.11,3.2-1.36,6.14-3.38,8.41-.62,.69-1.3,1.32-2.05,1.88-1.2,.89-2.56,1.58-4.03,2.03l-.07,.02c-.08,.03-.17,.05-.26,.08,0,0,0,0-.02,0-.26,.07-.53,.14-.79,.19-.56,.12-1.14,.21-1.73,.26-7.38,.6-13.85-4.89-14.45-12.27-.1-1.25-.03-2.46,.2-3.63,.22,.02,.46,.02,.69,0,2.03-.16,3.55-1.95,3.38-3.98-.02-.29-.08-.56-.16-.82,.2,.01,.4,.01,.6,0,2.08-.16,3.62-1.99,3.46-4.07-.02-.3-.08-.59-.17-.86,1.33-.59,2.77-.96,4.29-1.08,5.24-.43,10.02,2.22,12.56,6.44,1.04,1.72,1.71,3.7,1.88,5.84,.05,.53,.05,1.07,.03,1.58Z"/><circle class="cls-21" cx="1056.29" cy="430.87" r="1.63"/><circle class="cls-21" cx="1059.64" cy="423.66" r="1.63"/><circle class="cls-21" cx="1065.25" cy="426.95" r="1.63"/><circle class="cls-21" cx="1064.32" cy="417.84" r="1.63"/><circle class="cls-21" cx="1063.39" cy="435.26" r="1.63"/><circle class="cls-21" cx="1070.93" cy="431.18" r="1.63"/><circle class="cls-21" cx="1071.4" cy="421.96" r="1.63"/></g><g class="cls-26"><path d="M1080.37,426.9l-4.58,.86-6.16,1.15-.95,.18c-2.05,.38-4.02-.97-4.4-3.02l-.02-.1c-.21-1.14,.11-2.25,.79-3.08h0c.54-.67,1.31-1.15,2.22-1.32l5.06-.95,6.59-1.23c2.05-.38,4.02,.97,4.4,3.02l.02,.1c.38,2.04-.96,4.01-2.99,4.4Z"/><path d="M1081.94,434.39l-.71,.14h-.02l-3.38,.63-3.91,.73-4.05,.76c-2.04,.36-3.98-.98-4.37-3.02l-.02-.1c-.38-2.05,.97-4.01,3.02-4.4l.19-.04,.95-.17,6.15-1.16,4.58-.86,.17-.03c2.05-.38,4.01,.97,4.4,3.02l.02,.1c.38,2.05-.97,4.02-3.02,4.4Z"/><path d="M1082.41,434.52c-.88,.36-1.73,.84-2.51,1.29-1.4,.8-2.69,1.29-4.31,1.45-.74,.07-1.49,.08-2.24,.16-.49,.04-.92,.17-1.36,.32-.29,.1-.59,.21-.89,.3-.63,.2-1.27,.24-1.88,.53-.58,.29-.97,.69-1.26,1.21,0,0,0,0,0,.02-.02,0-.04,0-.06,0s-.05,0-.08,0c-.07,.02-.13,.04-.19,.07,0,0,0,0-.02,0-.26,.07-.53,.14-.79,.19,.11-1.67,1.31-3.1,3.03-3.42l4.05-.76,.13-.02,3.78-.71,3.38-.63h.02c.41-.08,.8-.07,1.18,0Z"/></g><g><path class="cls-16" d="M1081.12,426.9l-4.58,.86-6.16,1.15-.95,.18c-2.05,.38-4.02-.97-4.4-3.02l-.02-.1c-.21-1.14,.11-2.25,.79-3.08h0c.54-.67,1.31-1.15,2.22-1.32l5.06-.95,6.59-1.23c2.05-.38,4.02,.97,4.4,3.02l.02,.1c.38,2.04-.96,4.01-2.99,4.4Z"/><path class="cls-16" d="M1082.69,434.39l-.71,.14h-.02l-3.38,.63-3.91,.73-4.05,.76c-2.04,.36-3.98-.98-4.37-3.02l-.02-.1c-.38-2.05,.97-4.01,3.02-4.4l.19-.04,.95-.17,6.15-1.16,4.58-.86,.17-.03c2.05-.38,4.01,.97,4.4,3.02l.02,.1c.38,2.05-.97,4.02-3.02,4.4Z"/><path class="cls-16" d="M1083.37,442.04l-2.76,.52-1.04,.19-.61,.12h0l-6.93,1.29c-2.03,.38-3.98-.96-4.36-2.99l-.03-.16c-.38-2.03,.95-3.98,2.99-4.37l4.05-.76,3.91-.73,3.38-.63h.02c2.02-.38,3.97,.97,4.34,2.99l.03,.16c.38,2.03-.95,3.98-2.99,4.37Z"/><path class="cls-16" d="M1083.13,449.65c-.34,.2-.72,.35-1.13,.42l-8.9,1.66c-.87,.16-1.73-.02-2.42-.46-.79-.49-1.37-1.29-1.56-2.27l-.15-.8c-.35-1.85,.88-3.64,2.73-3.98l.32-.06,6.93-1.29h0l.61-.11,1.04-.2c1.85-.35,3.64,.87,3.98,2.73l.15,.79c.27,1.45-.41,2.85-1.61,3.57Z"/></g></g><g><circle class="cls-6" cx="1042.79" cy="369.12" r="13.12"/><circle class="cls-21" cx="1039.36" cy="361.3" r="1.6"/><circle class="cls-21" cx="1046.13" cy="365.14" r="1.6"/><circle class="cls-21" cx="1042.47" cy="370.35" r="1.6"/><circle class="cls-21" cx="1051.43" cy="370.17" r="1.6"/><circle class="cls-21" cx="1034.52" cy="367.89" r="1.6"/><circle class="cls-21" cx="1037.9" cy="375.57" r="1.6"/><circle class="cls-21" cx="1046.86" cy="376.75" r="1.6"/></g><g><circle class="cls-6" cx="1136.17" cy="398.99" r="13.12"/><circle class="cls-21" cx="1132.74" cy="391.17" r="1.6"/><circle class="cls-21" cx="1139.51" cy="395.01" r="1.6"/><circle class="cls-21" cx="1135.85" cy="400.22" r="1.6"/><circle class="cls-21" cx="1144.81" cy="400.04" r="1.6"/><circle class="cls-21" cx="1127.9" cy="397.76" r="1.6"/><circle class="cls-21" cx="1131.28" cy="405.44" r="1.6"/><circle class="cls-21" cx="1140.24" cy="406.62" r="1.6"/></g><g><circle class="cls-6" cx="1087.17" cy="490.99" r="13.12"/><circle class="cls-21" cx="1083.74" cy="483.17" r="1.6"/><circle class="cls-21" cx="1090.51" cy="487.01" r="1.6"/><circle class="cls-21" cx="1086.85" cy="492.22" r="1.6"/><circle class="cls-21" cx="1095.81" cy="492.04" r="1.6"/><circle class="cls-21" cx="1078.9" cy="489.76" r="1.6"/><circle class="cls-21" cx="1082.28" cy="497.44" r="1.6"/><circle class="cls-21" cx="1091.24" cy="498.62" r="1.6"/></g><g><path class="cls-18" d="M235.51,359.42L11.13,240.29c29.19,2.07,56.56,7.63,82.2,16.54,.61,.21,1.21,.42,1.82,.65,28.41,10.08,54.68,24.29,78.9,42.44,.49,.37,.97,.73,1.46,1.1,21.6,16.37,41.58,35.89,60,58.41Z"/><path class="cls-9" d="M235.57,359.32c-81.01-27.25-155.51-67.55-224.38-119.13,1.52-2.87,225.9,116.27,224.38,119.13Z"/><ellipse class="cls-20" cx="121.88" cy="302.61" rx="2.69" ry="35.44" transform="translate(-202.54 268.35) rotate(-62.03)"/><path class="cls-2" d="M173.9,299.84c-24.22-18.15-50.49-32.36-78.9-42.44,8.24-11.15,30.29-11.6,51-.61,20.96,11.13,32.96,29.95,27.9,43.05Z"/></g><g><circle class="cls-6" cx="919.46" cy="282.53" r="13.12"/><circle class="cls-21" cx="916.03" cy="274.71" r="1.6"/><circle class="cls-21" cx="922.8" cy="278.55" r="1.6"/><circle class="cls-21" cx="919.14" cy="283.76" r="1.6"/><circle class="cls-21" cx="928.1" cy="283.58" r="1.6"/><circle class="cls-21" cx="911.19" cy="281.29" r="1.6"/><circle class="cls-21" cx="914.57" cy="288.97" r="1.6"/><circle class="cls-21" cx="923.53" cy="290.16" r="1.6"/></g></svg>