<?xml version="1.0" encoding="UTF-8"?><svg id="Layer_1" xmlns="http://www.w3.org/2000/svg" viewBox="0 0 493 502.01"><defs><style>.cls-1{fill:#003049;}.cls-2{fill:#b3babc;}.cls-3{fill:#d1d1d1;}.cls-4{opacity:.25;}</style></defs><path class="cls-3" d="M491.5,251c0,3.6-.08,7.19-.23,10.75-.39,9.96-1.4,19.76-2.96,29.37-3.11,19.64-8.52,38.54-15.91,56.36-6.34,15.38-14.19,30-23.33,43.6-5.02,7.51-10.46,14.74-16.26,21.62-9.64,11.46-20.34,22.05-31.85,31.58-7.19,5.93-14.7,11.5-22.56,16.56-38.07,24.82-83.34,39.17-131.91,39.17-23.72,0-46.67-3.44-68.37-9.84-19.09-5.61-37.22-13.52-54.06-23.44-18.82-11.07-36.09-24.62-51.37-40.2-5.06-5.18-9.92-10.59-14.54-16.24-7-8.54-13.46-17.63-19.33-27.11-11.55-18.66-20.69-39.01-27.03-60.59-4.63-15.53-7.74-31.7-9.22-48.34-.74-7.63-1.09-15.41-1.09-23.24,0-2.29,.04-4.58,.08-6.88,.43-15.41,2.22-30.47,5.29-45.06,2.61-12.57,6.14-24.74,10.54-36.52,6.38-17.03,14.51-33.16,24.23-48.14,6.3-9.76,13.26-19.01,20.81-27.75,9.64-11.15,20.22-21.38,31.66-30.59,5.21-4.23,10.58-8.22,16.14-11.98C149.2,17.49,196.06,2,246.5,2c32.82,0,64.13,6.56,92.75,18.46,20.07,8.34,38.77,19.33,55.77,32.53,15.24,11.78,29.05,25.37,41.18,40.43,4.51,5.61,8.79,11.38,12.79,17.39,6.3,9.37,12.02,19.21,16.99,29.49,7.97,16.28,14.23,33.56,18.55,51.62,3.93,16.28,6.26,33.2,6.81,50.55,.12,2.85,.16,5.69,.16,8.54Z"/><circle class="cls-2" cx="231.5" cy="111" r="30"/><circle class="cls-2" cx="149.5" cy="66" r="16"/><circle class="cls-2" cx="299.25" cy="246.25" r="17.75"/><circle class="cls-2" cx="458.06" cy="242.84" r="21.84"/><circle class="cls-2" cx="329.18" cy="393.88" r="6.88"/><circle class="cls-2" cx="369.89" cy="341.09" r="6.88"/><circle class="cls-2" cx="361.51" cy="171.22" r="6.88"/><circle class="cls-2" cx="272.04" cy="27.52" r="4.48"/><circle class="cls-2" cx="382.76" cy="84.2" r="3.2"/><circle class="cls-2" cx="118.5" cy="206" r="43"/><circle class="cls-2" cx="184.14" cy="389.92" r="21.84"/><g class="cls-4"><path class="cls-1" d="M366.15,468.32c-35.38,20.2-76.19,31.68-119.65,31.68-23.72,0-46.67-3.44-68.37-9.84-19.09-5.61-37.21-13.52-54.05-23.44-18.82-11.06-36.09-24.62-51.37-40.19-5.06-5.18-9.92-10.59-14.55-16.25-7-8.53-13.45-17.62-19.33-27.11-11.55-18.66-20.69-39.01-27.02-60.59-4.63-15.53-7.74-31.7-9.22-48.34-.74-7.63-1.09-15.41-1.09-23.24,0-2.29,.04-4.58,.08-6.88,.43-15.41,2.21-30.47,5.29-45.06,2.6-12.56,6.14-24.74,10.54-36.52,6.37-17.03,14.5-33.16,24.22-48.14,6.3-9.76,13.26-19.01,20.81-27.74,9.64-11.15,20.22-21.39,31.65-30.59,5.22-4.23,10.58-8.23,16.14-11.98,7.38-5.03,15.03-9.67,22.95-13.88-4.82,11.02-9.09,22.45-12.77,34.25-4.4,14.12-7.94,28.71-10.54,43.78-3.08,17.48-4.86,35.54-5.29,54.02-.04,2.74-.08,5.49-.08,8.24,0,9.38,.35,18.72,1.09,27.86,1.48,19.95,4.59,39.33,9.22,57.95,6.33,25.87,15.47,50.27,27.02,72.63,5.88,11.37,12.33,22.27,19.33,32.51,4.63,6.77,9.49,13.26,14.55,19.47,15.28,18.67,32.55,34.92,51.37,48.19,16.84,11.89,34.96,21.36,54.05,28.09,21.7,7.68,44.65,11.8,68.37,11.8,5.6,0,11.15-.23,16.65-.68Z"/></g></svg>