<?xml version="1.0" encoding="UTF-8"?><svg id="Layer_1" xmlns="http://www.w3.org/2000/svg" viewBox="0 0 442 450.17"><defs><style>.cls-1{fill:#e8ab68;}.cls-2{fill:#e56643;}.cls-3{fill:#ec8f52;}</style></defs><path class="cls-1" d="M440.5,225.09c0,3.22-.07,6.44-.21,9.63-.35,8.92-1.25,17.71-2.65,26.31-2.79,17.6-7.63,34.53-14.25,50.5-5.68,13.77-12.72,26.88-20.9,39.06-4.49,6.73-9.37,13.21-14.56,19.37-8.64,10.27-18.22,19.76-28.54,28.29-6.45,5.31-13.17,10.3-20.21,14.84-34.11,22.24-74.67,35.09-118.18,35.09-21.25,0-41.81-3.08-61.25-8.82-17.11-5.03-33.34-12.11-48.43-21-16.86-9.91-32.33-22.06-46.03-36.01-4.53-4.64-8.88-9.49-13.03-14.55-6.27-7.65-12.06-15.79-17.32-24.29-10.35-16.71-18.54-34.95-24.21-54.28-4.15-13.92-6.93-28.4-8.26-43.31-.66-6.83-.98-13.81-.98-20.82,0-2.05,.03-4.11,.07-6.16,.38-13.81,1.99-27.3,4.74-40.37,2.33-11.26,5.5-22.17,9.44-32.72,5.71-15.26,13-29.71,21.71-43.13,5.64-8.75,11.88-17.03,18.64-24.86,8.64-9.99,18.12-19.16,28.36-27.41,4.67-3.79,9.48-7.37,14.46-10.73C133.83,15.88,175.81,2,221,2c29.41,0,57.45,5.88,83.1,16.54,17.98,7.47,34.74,17.32,49.96,29.14,13.66,10.55,26.03,22.73,36.9,36.22,4.04,5.03,7.87,10.2,11.46,15.58,5.64,8.39,10.77,17.21,15.23,26.42,7.14,14.59,12.75,30.06,16.62,46.25,3.52,14.59,5.61,29.75,6.1,45.29,.1,2.55,.14,5.1,.14,7.65Z"/><g><path class="cls-3" d="M390.96,83.9c-36.69,7.58-102.78,18.52-187.38,20.79-72.05,1.91-119.33-12.92-147.48-26.84,8.64-9.99,18.12-19.16,28.36-27.41,23.27,14.16,72.82,32.97,160.93,18.84,46.83-7.51,82.33-15.05,108.67-21.6,13.66,10.55,26.03,22.73,36.9,36.22Z"/><path class="cls-2" d="M417.64,125.9c-12.89,.35-27.25,1.13-43.1,2.44-99.89,8.11-155.84,36.54-203.79,36.54-29.51,0-102.92-10.76-155.01-19.05,5.71-15.26,13-29.71,21.71-43.13,35.29,10.76,86.2,21.67,143.27,19.55,61.22-2.3,152.67-13.1,221.7-22.77,5.64,8.39,10.77,17.21,15.23,26.42Z"/><path class="cls-3" d="M440.36,217.44c-49.96,7.58-141.46,18.77-259.01,21.07-81.67,1.59-140.17-8.29-179.78-19.58,.38-13.81,1.99-27.3,4.74-40.37,25.02,13.77,94.04,40.72,232.39,24.54,97.63-11.44,159.36-22.84,195.56-30.95,3.52,14.59,5.61,29.75,6.1,45.29Z"/><path class="cls-2" d="M440.29,234.72c-.35,8.92-1.25,17.71-2.65,26.31-7,.32-14.28,.71-21.78,1.13-137.03,8.14-213.79,36.54-279.57,36.54-25.47,0-74.73-4.25-125.57-9.49-4.15-13.92-6.93-28.4-8.26-43.31,42.05,6.76,92.75,11.69,147.55,10.16,79.93-2.2,197.45-12.07,290.26-21.35Z"/><path class="cls-2" d="M387.92,369.95c-8.64,10.27-18.22,19.76-28.54,28.29-33.41-2.9-74.98-2.8-125.92,3.15-49.47,5.81-89.75,11.58-122.15,16.96-16.86-9.91-32.33-22.06-46.03-36.01,52.78-6.87,130.69-14.52,225.56-16.36,37-.71,69.19,.92,97.07,3.97Z"/><path class="cls-3" d="M423.39,311.52c-5.68,13.77-12.72,26.88-20.9,39.06-25.29-1.98-52.26-2.9-80.31-2.12-74.21,2.02-180.76,10.69-269.92,19.33-6.27-7.65-12.06-15.79-17.32-24.29,6.86-.32,14.01-.71,21.36-1.13,137.07-8.14,213.79-36.58,279.57-36.58,18.99,0,51.25,2.37,87.52,5.74Z"/><path class="cls-2" d="M304.1,18.54c-24.04-.04-51.22,1.42-81.74,4.99-49.47,5.81-89.75,11.58-122.15,16.96-.42-.25-.87-.5-1.29-.78C133.83,15.88,175.81,2,221,2c29.41,0,57.45,5.88,83.1,16.54Z"/><path class="cls-3" d="M339.18,413.08c-34.11,22.24-74.67,35.09-118.18,35.09-21.25,0-41.81-3.08-61.25-8.82,20.14,.78,43.55-.42,70.62-4.78,46.83-7.51,82.33-15.05,108.67-21.6,.03,.04,.1,.07,.14,.11Z"/></g></svg>