<?xml version="1.0" encoding="UTF-8"?><svg id="Layer_1" xmlns="http://www.w3.org/2000/svg" viewBox="0 0 694.29 456.71"><defs><style>.cls-1{fill:#003049;}.cls-2{fill:#fff7ee;}.cls-3{fill:#a0a0a0;}.cls-4{fill:#ddd;}.cls-5{fill:#dbdbdb;}.cls-6{fill:#d62828;}.cls-7{fill:#c6c6c6;}.cls-8{fill:#494949;}.cls-9{fill:#7a7a7a;}.cls-10{fill:#7bb3c6;}.cls-10,.cls-11{stroke:#003049;stroke-miterlimit:10;stroke-width:1.58px;}.cls-11{fill:none;}</style></defs><g><path class="cls-4" d="M408.5,404.76c-2.52-2.96-6.51-4.88-11.01-4.88-6.62,0-12.14,4.12-13.48,9.62l-3.56,2.11c-1.86,1.11-3.48,2.66-4.42,4.61-.32,.67-.58,1.38-.76,2.11-2.22-.61-4.65-.95-7.21-.95-7.39,0-13.75,2.84-16.74,6.95-2.07-2.82-5.45-4.89-9.46-5.59l6.56-5.47c.68-1.29,1.07-2.71,1.07-4.21,0-5.82-5.64-10.53-12.6-10.53s-11.93,4.72-11.93,10.53h0c0-5.03-3.05-9.55-7.71-11.43l-5.02-2.03c-2.25-.91-4.31-2.36-5.66-4.39-1.92-2.9-5.62-4.87-9.87-4.87-6.22,0-11.27,4.22-11.27,9.42,0,.98,.18,1.92,.51,2.8-.26,0-.51-.03-.76-.03-9.4,0-17.39,4.96-20.48,11.91-1.98-1.09-4.24-1.7-6.66-1.7-6.51,0-11.96,4.5-13.44,10.55-2.12-1.65-4.78-2.64-7.67-2.64-3.26,0-6.21,1.25-8.44,3.29-2-4.28-6.32-7.25-11.35-7.25-1.69,0-3.3,.34-4.78,.95-2.74-4.44-9.02-7.55-16.34-7.55s-13.07,2.86-15.98,7.02c-1.66-1.1-3.65-1.74-5.8-1.74-1.44,0-2.81,.29-4.06,.81-2.09-4.01-6.28-6.75-11.12-6.75-4.49,0-8.42,2.37-10.63,5.92-2.71-.92-5.84-1.16-9.04-.53-5.65,1.11-10.07,4.64-11.89,8.92-1.52-.22-3.13-.2-4.77,.13-5.59,1.1-9.61,5.25-9.87,9.77-.96-.43-2.01-.75-3.13-.92-4.96-.73-9.49,1.66-10.76,5.45-.98-.7-2.12-1.19-3.39-1.37-3.67-.54-7.12,1.57-8.51,4.91-3.85,.05-6.57,1.97-7.17,6l142.41-.66H510.92l98.5,.45,46.09,.21,.04-1.13c-.21-8.03-8.43-14.64-19.21-15.94-1.71-.96-3.64-1.62-5.74-1.84-4.09-.43-7.94,.82-10.81,3.15-1.78-3.76-4.99-6.43-8.89-6.84-1.44-.15-2.86,.03-4.2,.47-4-6.55-12.68-10.53-22.2-9.42-2.82,.33-5.46,1.09-7.86,2.17-2.1-1.05-4.66-1.53-7.35-1.22-3.02,.35-5.65,1.64-7.52,3.46-1.76-.36-3.59-.58-5.49-.58-4.06,0-7.85,.9-11.13,2.45-2.31-3.83-6.5-6.41-11.3-6.41-3.05,0-5.85,1.04-8.09,2.78-2.75-6.3-9.02-10.7-16.33-10.7-8.1,0-14.93,5.41-17.09,12.81-4.86-1.84-10.37-2.88-16.23-2.88-.27,0-.55,.01-.82,.02,.12-.75,.21-1.5,.21-2.27,0-9.71-10.1-17.58-22.57-17.58-.8,0-1.59,.03-2.37,.1-1.78-4.61-7.27-7.98-13.77-7.98-4.45,0-8.43,1.58-11.07,4.05"/><polygon class="cls-1" points="374.61 141.78 374.59 141.78 374.59 142.92 317.41 142.92 317.41 141.77 317.51 141.34 374.51 141.34 374.61 141.78"/><path class="cls-2" d="M692.17,454.79l.04-1.35c-.25-9.63-10.11-17.55-23.03-19.11-2.05-1.15-4.37-1.94-6.88-2.21-4.9-.52-9.52,.98-12.96,3.78-2.14-4.51-5.98-7.71-10.66-8.2-1.73-.18-3.43,.04-5.03,.57-4.79-7.85-15.2-12.63-26.62-11.29-3.39,.4-6.55,1.31-9.42,2.6-2.52-1.26-5.59-1.83-8.82-1.46-3.62,.42-6.77,1.97-9.01,4.14-2.11-.44-4.3-.7-6.58-.7-4.86,0-9.41,1.08-13.35,2.94-2.77-4.6-7.79-7.68-13.55-7.68-3.66,0-7.01,1.25-9.69,3.34-3.29-7.55-10.81-12.83-19.58-12.83-9.71,0-17.9,6.49-20.49,15.36-5.82-2.2-12.43-3.46-19.46-3.46-.33,0-.65,.01-.98,.02,.15-.89,.25-1.8,.25-2.73,0-11.64-12.11-21.08-27.06-21.08-.96,0-1.91,.04-2.84,.12-2.13-5.53-8.71-9.56-16.51-9.56-5.34,0-10.11,1.89-13.27,4.86v-22.8h-20.66v40.02c-3.02-3.54-7.8-5.84-13.2-5.84-7.94,0-14.56,4.94-16.16,11.53l-4.27,2.53c-2.36,1.4-4.37,3.41-5.48,5.92-.3,.69-.55,1.4-.73,2.14-2.66-.74-5.58-1.14-8.64-1.14-8.86,0-16.49,3.41-20.07,8.33-2.48-3.38-6.54-5.86-11.34-6.7l7.86-6.56c.81-1.55,1.29-3.25,1.29-5.05,0-6.97-6.76-12.63-15.1-12.63s-14.31,5.65-14.31,12.63v-47.85h-20.67v29.51c-1.31-5.09-6.72-8.91-13.2-8.91-7.46,0-13.51,5.06-13.51,11.3,0,1.17,.21,2.3,.61,3.36-.31,0-.61-.04-.92-.04-11.26,0-20.84,5.95-24.56,14.28-2.37-1.3-5.09-2.04-7.98-2.04-7.81,0-14.34,5.39-16.12,12.65-2.54-1.97-5.73-3.16-9.2-3.16-3.9,0-7.45,1.5-10.12,3.94-2.39-5.13-7.58-8.69-13.61-8.69-2.03,0-3.96,.41-5.73,1.14-3.29-5.32-10.82-9.05-19.59-9.05s-15.67,3.43-19.15,8.41c-2-1.31-4.38-2.08-6.95-2.08-1.73,0-3.37,.35-4.87,.97-2.51-4.81-7.53-8.09-13.33-8.09-5.39,0-10.1,2.84-12.75,7.1-3.25-1.1-7-1.39-10.84-.63-6.78,1.34-12.07,5.56-14.26,10.69-1.82-.27-3.75-.24-5.72,.15-6.7,1.32-11.52,6.29-11.84,11.71-1.15-.52-2.41-.9-3.76-1.1-5.94-.88-11.38,1.98-12.9,6.53-1.17-.84-2.54-1.42-4.06-1.65-4.4-.65-8.53,1.88-10.21,5.89-4.62,.06-7.88,2.37-8.59,7.19l170.73-.79h346.01l118.08,.53,55.25,.25Z"/><g><g><g><g><path class="cls-3" d="M433.11,68.21v214.28c-.11-.09-.2-.18-.3-.27-11.04-10.34-21-21.83-29.69-34.31l-1.79-2.56c-6.04-8.66-10.85-18.11-14.33-28.08-.21-.6-.41-1.2-.61-1.82-.55-1.65-1.07-3.32-1.54-5.01V68.21c0-13.55,10.81-24.52,24.13-24.52,6.67,0,12.69,2.74,17.07,7.17,4.36,4.45,7.06,10.57,7.06,17.35Z"/><line class="cls-11" x1="384.86" y1="99.09" x2="433.3" y2="99.09"/><line class="cls-11" x1="384.26" y1="157.95" x2="433.3" y2="157.95"/><line class="cls-11" x1="433.11" y1="215.45" x2="386.39" y2="215.45"/></g><g><g><path class="cls-3" d="M307.58,68.21V209.32c-.71,2.69-1.54,5.34-2.45,7.94-3.48,9.97-8.29,19.42-14.33,28.08l-1.79,2.56c-8.69,12.48-18.64,23.98-29.69,34.31V68.21c0-13.55,10.79-24.52,24.13-24.52,6.67,0,12.69,2.74,17.07,7.17,4.36,4.45,7.06,10.57,7.06,17.35Z"/><line class="cls-11" x1="259.33" y1="100.91" x2="311.48" y2="100.91"/><line class="cls-11" x1="259.27" y1="159.53" x2="309.9" y2="159.53"/><polyline class="cls-11" points="309.9 217.26 259.33 217.26 258.9 217.26"/></g><g><g><path class="cls-6" d="M307.59,31.88V209.33c.52-1.96,1-3.94,1.42-5.95l4.03-18.91,4.37-26.59v163.86c.25-.16,.51-.32,.78-.46,.79-.46,1.63-.85,2.52-1.17,.36-.14,.73-.27,1.11-.38,.41-.14,.85-.25,1.28-.36,.35-.08,.7-.16,1.04-.21,.33-.06,.68-.11,1.03-.16h.05c.35-.05,.68-.08,1.03-.09h.02c.36-.02,.73-.03,1.09-.03h37.32c.36,0,.73,.02,1.09,.03,.22,.02,.44,.03,.66,.06,.35,.02,.68,.06,1.03,.11,.4,.06,.81,.13,1.2,.22,.27,.06,.54,.13,.79,.19l.19,.05s.05,.02,.08,.03l.33,.09c.33,.09,.65,.21,.97,.32l.14,.05c.38,.14,.76,.3,1.12,.46,.03,.02,.06,.03,.08,.05,.05,.02,.09,.03,.14,.06,.35,.14,.66,.32,1,.49,.38,.19,.74,.41,1.09,.63,0,.02,.02,.02,.02,.02,3.05,1.93,5.52,4.73,7.09,8.04h.13c-1.57-3.31-4.03-6.11-7.09-8.04V157.88l4.35,26.59,4.03,18.91c.4,1.84,.82,3.65,1.31,5.46V31.88h-76.84Z"/><path class="cls-6" d="M384.28,31.88c-1.47-16.77-16.92-29.97-35.8-29.97h-4.96c-18.88,0-34.33,13.2-35.8,29.97h76.56Z"/></g><path class="cls-5" d="M374.6,141.79h-57.19v-.02l.09-.43,.13-.63,13.62-67.05c.74-3.43,1.53-6.55,2.36-9.37,.16-.54,.32-1.06,.47-1.58,3.35-10.77,7.25-16.47,11.19-17.09,.24-.05,.49-.06,.73-.06,.28,0,.57,.03,.85,.09,3.89,.71,7.75,6.41,11.06,17.06,.16,.52,.32,1.04,.47,1.58,.82,2.82,1.61,5.93,2.36,9.37l13.64,67.05,.13,.63,.1,.44Z"/><path class="cls-5" d="M374.59,141.77v179.98c-.22-.14-.44-.28-.68-.41-.46-.27-.93-.51-1.41-.74-.05-.03-.09-.05-.14-.06-.21-.09-.4-.17-.6-.25-.21-.09-.4-.17-.6-.25l-.14-.05c-.32-.11-.63-.22-.97-.32l-.33-.09s-.05-.02-.08-.03l-.19-.05c-.25-.06-.52-.13-.79-.19-.4-.09-.81-.16-1.2-.22-.35-.05-.68-.09-1.03-.11-.22-.03-.44-.05-.66-.06-.36-.02-.73-.03-1.09-.03h-37.32c-.36,0-.73,.02-1.09,.03h-.02c-.35,.02-.68,.05-1.03,.09h-.05c-.35,.05-.7,.09-1.03,.16-.35,.05-.7,.13-1.04,.21-.43,.11-.87,.22-1.28,.36-.38,.11-.74,.24-1.11,.38-.89,.32-1.72,.71-2.52,1.17-.25,.16-.52,.32-.78,.47V141.77h57.18Z"/><line class="cls-11" x1="316.23" y1="185.37" x2="375.28" y2="185.37"/><line class="cls-11" x1="316.23" y1="228.96" x2="377.93" y2="228.96"/><line class="cls-11" x1="316.96" y1="270.74" x2="375.04" y2="270.74"/><rect class="cls-9" x="316.51" y="369.05" width="58.98" height="12.71"/><path class="cls-3" d="M383.53,338.05v31.68h-75.06v-31.68c0-2.96,.66-5.78,1.84-8.28,1.57-3.31,4.04-6.1,7.09-8.03,1.04-.65,2.13-1.2,3.29-1.63,2.07-.8,4.31-1.24,6.65-1.24h37.32c3.65,0,7.06,1.05,9.94,2.87,3.06,1.93,5.52,4.72,7.09,8.03,1.18,2.51,1.84,5.32,1.84,8.28Z"/><line class="cls-11" x1="346" y1="318.87" x2="346" y2="382.44"/></g></g></g><path class="cls-1" d="M358.39,64.29h-24.78c.16-.54,.32-1.06,.47-1.58h23.83c.16,.52,.32,1.04,.47,1.58Z"/><path class="cls-7" d="M317.41,157.88v163.85c-3.06,1.93-5.52,4.72-7.09,8.03-1.18,2.51-1.84,5.32-1.84,8.28v11.03c-.25-.05-.52-.11-.79-.18-12.01-2.71-30.58-6.99-46.25-10.63-8.36-1.93-15.89-3.67-21.16-4.89-4.34-1.02-7.22-5.21-6.67-9.7l.59-4.83c1.29-10.5,6.38-20.13,14.3-27.03l5.17-4.49c1.91-1.67,3.81-3.38,5.67-5.12,11.05-10.34,21-21.83,29.69-34.31l1.79-2.56c6.04-8.66,10.85-18.11,14.33-28.08,.91-2.6,1.73-5.25,2.45-7.94,.54-1.96,1-3.94,1.43-5.94l4.04-18.91,4.36-26.59Z"/><path class="cls-7" d="M451.86,333.38c-5.25,1.22-12.76,2.96-21.11,4.89-15.64,3.61-34.19,7.9-46.22,10.61-.3,.07-.59,.13-.88,.2v-11.03c0-2.96-.66-5.78-1.84-8.28-1.57-3.31-4.04-6.1-7.09-8.03V157.88l4.36,26.59,4.04,18.91c.39,1.83,.82,3.65,1.3,5.45,.04,.16,.09,.33,.13,.49,.09,.36,.2,.74,.3,1.11,.46,1.69,.98,3.36,1.54,5.01,.2,.62,.39,1.22,.61,1.82,3.49,9.97,8.29,19.42,14.33,28.08l1.79,2.56c8.69,12.48,18.64,23.98,29.69,34.31,.11,.09,.2,.18,.3,.27,1.75,1.65,3.56,3.27,5.36,4.85l5.17,4.49c7.92,6.9,13.01,16.53,14.3,27.03l.59,4.83c.55,4.49-2.32,8.68-6.67,9.7Z"/><polygon class="cls-1" points="374.6 141.79 374.59 141.79 374.59 142.29 317.41 142.29 317.41 141.77 317.51 141.34 317.63 140.71 374.38 140.71 374.51 141.34 374.6 141.79"/></g><g><path class="cls-10" d="M345.4,88.15h1.32c10.98,0,19.89,8.91,19.89,19.89v.16h-41.1v-.16c0-10.98,8.91-19.89,19.89-19.89Z"/><path class="cls-11" d="M346.07,108.43v-20.92"/></g><path class="cls-1" d="M346.86,45.65v18.51h-1.58v-18.54c.24-.05,.49-.06,.73-.06,.28,0,.57,.03,.85,.09Z"/><g><rect class="cls-8" x="268.19" y="357.92" width="35.74" height="19.98"/><path class="cls-9" d="M307.51,348.89v9.03h-43.79c-5.43,0-9.83-4.47-9.83-9.99,0-2.76,1.11-5.27,2.88-7.07,1.22-1.24,2.75-2.14,4.49-2.6,15.67,3.63,34.24,7.92,46.25,10.63Z"/></g><g><rect class="cls-8" x="387.93" y="357.92" width="35.74" height="19.98" transform="translate(811.6 735.82) rotate(180)"/><path class="cls-9" d="M437.97,347.93c0,5.52-4.4,9.99-9.83,9.99h-43.79v-9.05c12.03-2.71,30.58-6.99,46.22-10.61,1.75,.44,3.31,1.36,4.52,2.6,1.77,1.8,2.88,4.3,2.88,7.07Z"/></g></g></g><line class="cls-11" x1="308.32" y1="30.59" x2="384.26" y2="30.59"/></svg>